<svg width="189" height="60" viewBox="0 0 189 60" fill="none" xmlns="http://www.w3.org/2000/svg">
<g clip-path="url(#clip0_18_35)">
<path d="M10.0006 26C7.79452 26 6.00061 27.795 6.00061 30C6.00061 32.206 7.79463 34 10.0006 34C12.2066 34 14.0005 32.2059 14.0005 30C14.0005 27.795 12.2065 26 10.0006 26ZM10.0006 32C8.8976 32 8.00053 31.104 8.00053 30C8.00053 28.897 8.89748 28 10.0006 28C11.1026 28 12.0006 28.8969 12.0006 30C12.0006 31.104 11.1026 32 10.0006 32Z" fill="#FFFD9F"/>
<path d="M40.5565 42.0269C38.8815 42.0269 37.3705 43.084 36.7965 44.6599C36.0425 46.7319 37.1146 49.0309 39.1865 49.7859C39.6286 49.9459 40.0885 50.0279 40.5555 50.0279C42.2305 50.0279 43.7415 48.97 44.3135 47.395C45.0675 45.323 43.9955 43.0229 41.9235 42.2689C41.4815 42.108 41.0215 42.0269 40.5565 42.0269ZM42.4345 46.711C42.0685 47.718 40.8915 48.2761 39.8704 47.9071C38.8344 47.529 38.2985 46.3791 38.6755 45.3441C38.9625 44.5561 39.7185 44.0271 40.5565 44.0271C40.7885 44.0271 41.0175 44.0681 41.2394 44.1482C42.2755 44.525 42.8115 45.675 42.4345 46.711Z" fill="#FFFC72"/>
<path d="M46.0275 34.993C47.7035 34.993 49.2146 33.935 49.7866 32.36C50.5405 30.2881 49.4685 27.988 47.3956 27.2331C46.9546 27.0731 46.4945 26.992 46.0286 26.992C44.3526 26.992 42.8415 28.05 42.2686 29.625C41.5146 31.697 42.5876 33.997 44.6596 34.751C45.1006 34.911 45.5605 34.993 46.0275 34.993ZM44.1476 30.308C44.4346 29.5209 45.1906 28.992 46.0286 28.992C46.2616 28.992 46.4905 29.033 46.7126 29.113C47.7487 29.49 48.2846 30.64 47.9076 31.676C47.5416 32.683 46.3646 33.244 45.3436 32.871C44.3076 32.494 43.7706 31.345 44.1476 30.308Z" fill="#FF1525"/>
<path d="M40.0008 35V5.00004C40.0008 2.24402 37.7578 0 35.0007 0H5.00072C2.24376 0 0.000793457 2.24402 0.000793457 5.00004V35C0.000793457 37.757 2.24376 40.0001 5.00083 40.0001H35.0008C37.7578 40 40.0008 37.757 40.0008 35ZM2.00072 35V5.00004C2.00072 3.34605 3.34673 2.00004 5.00072 2.00004H35.0007C36.6547 2.00004 38.0007 3.34605 38.0007 5.00004V35C38.0007 36.6551 36.6547 38 35.0007 38H5.00072C3.34673 38 2.00072 36.655 2.00072 35Z" fill="#FF1525"/>
<path d="M10.0006 6C7.79452 6 6.00061 7.79496 6.00061 9.99996C6.00061 12.206 7.79463 13.9999 10.0006 13.9999C12.2066 13.9999 14.0005 12.2059 14.0005 9.99996C14.0005 7.79496 12.2065 6 10.0006 6ZM10.0006 12C8.8976 12 8.00053 11.104 8.00053 9.99996C8.00053 8.89699 8.89748 7.99992 10.0006 7.99992C11.1026 7.99992 12.0006 8.89687 12.0006 9.99996C12.0006 11.104 11.1026 12 10.0006 12Z" fill="#1EBA2B"/>
<path d="M56.7095 22.11L42.3275 16.875C41.8096 16.688 41.2345 16.954 41.0466 17.473C40.8566 17.992 41.1246 18.566 41.6435 18.755L56.0255 23.989C57.5795 24.555 58.3845 26.28 57.8184 27.834L47.5575 56.025C46.9925 57.58 45.2665 58.384 43.7125 57.819L15.5215 47.558C13.9685 46.9919 13.1634 45.2669 13.7285 43.712L14.1966 42.426C14.3865 41.9069 14.1176 41.333 13.5996 41.145C13.0766 40.957 12.5066 41.224 12.3176 41.743L11.8495 43.028C10.9065 45.619 12.2475 48.4939 14.8385 49.4369L43.0286 59.698C43.5915 59.902 44.1666 60 44.7326 60C46.7756 59.9991 48.6986 58.7369 49.4366 56.709L59.6977 28.518C60.6406 25.927 59.3005 23.053 56.7095 22.11Z" fill="#1EBA2B"/>
<path d="M27.2616 41.518C26.7826 42.386 25.7666 42.772 24.8356 42.435C24.2695 42.229 23.9495 41.822 23.7805 41.516C23.5136 41.033 22.9045 40.8591 22.4215 41.125C21.9375 41.393 21.7635 42.001 22.0304 42.4849C22.5034 43.3379 23.2565 43.988 24.1514 44.3139C24.6045 44.4789 25.0675 44.5579 25.5244 44.5579C26.9414 44.5579 28.2874 43.7968 29.0134 42.4828C29.2794 41.9998 29.1034 41.3918 28.6204 41.1249C28.1356 40.858 27.5276 41.034 27.2616 41.518Z" fill="#FF1525"/>
<path d="M20.0005 16C17.7945 16 16.0005 17.7949 16.0005 19.9999C16.0005 22.206 17.7946 23.9999 20.0005 23.9999C22.2064 23.9999 24.0005 22.2059 24.0005 19.9999C24.0006 17.795 22.2066 16 20.0005 16ZM20.0005 22C18.8975 22 18.0005 21.104 18.0005 19.9999C18.0005 18.897 18.8974 17.9999 20.0005 17.9999C21.1025 17.9999 22.0006 18.8968 22.0006 19.9999C22.0006 21.104 21.1025 22 20.0005 22Z" fill="#FF1525"/>
<path d="M30.0006 26C27.7945 26 26.0006 27.795 26.0006 30C26.0006 32.206 27.7946 34 30.0006 34C32.2065 34 34.0005 32.2059 34.0005 30C34.0005 27.795 32.2065 26 30.0006 26ZM30.0006 32C28.8976 32 28.0005 31.104 28.0005 30C28.0005 28.897 28.8975 28 30.0006 28C31.1026 28 32.0006 28.8969 32.0006 30C32.0005 31.104 31.1025 32 30.0006 32Z" fill="#1EBA2B"/>
<path d="M30.0006 6C27.7945 6 26.0006 7.79496 26.0006 9.99996C26.0006 12.206 27.7946 13.9999 30.0006 13.9999C32.2065 13.9999 34.0005 12.2059 34.0005 9.99996C34.0005 7.79496 32.2065 6 30.0006 6ZM30.0006 12C28.8976 12 28.0005 11.104 28.0005 9.99996C28.0005 8.89699 28.8975 7.99992 30.0006 7.99992C31.1026 7.99992 32.0006 8.89687 32.0006 9.99996C32.0005 11.104 31.1025 12 30.0006 12Z" fill="#FFFC72"/>
</g>
<path d="M77.26 36.864C76.924 36.832 76.62 36.784 76.348 36.72C76.076 36.672 75.908 36.488 75.844 36.168C75.812 35.944 75.836 35.72 75.916 35.496C76.012 35.256 76.14 35.056 76.3 34.896C76.572 34.608 76.868 34.288 77.188 33.936C77.524 33.584 77.916 33.184 78.364 32.736C78.828 32.288 79.38 31.76 80.02 31.152C80.676 30.528 81.468 29.808 82.396 28.992C83.036 28.448 83.548 28 83.932 27.648C84.316 27.28 84.66 26.944 84.964 26.64C85.268 26.336 85.604 25.992 85.972 25.608C86.532 25.032 87.02 24.472 87.436 23.928C87.868 23.384 88.124 22.952 88.204 22.632C88.3 22.312 88.276 22.088 88.132 21.96C88.004 21.816 87.764 21.72 87.412 21.672C87.076 21.608 86.628 21.56 86.068 21.528C85.076 21.448 84.196 21.456 83.428 21.552C82.676 21.632 81.948 21.736 81.244 21.864C81.132 21.896 80.996 21.872 80.836 21.792C80.692 21.696 80.62 21.616 80.62 21.552C80.684 21.472 80.716 21.392 80.716 21.312C80.716 21.232 80.652 21.144 80.524 21.048C80.46 20.888 80.46 20.76 80.524 20.664C80.588 20.568 80.652 20.488 80.716 20.424C80.844 20.36 81.052 20.32 81.34 20.304C81.628 20.272 81.956 20.224 82.324 20.16C82.564 20.112 82.916 20.08 83.38 20.064C83.86 20.048 84.34 20.04 84.82 20.04C85.316 20.04 85.708 20.056 85.996 20.088C86.572 20.136 87.124 20.192 87.652 20.256C88.18 20.304 88.636 20.4 89.02 20.544C89.404 20.688 89.668 20.936 89.812 21.288C89.988 21.656 90.02 21.984 89.908 22.272C89.812 22.56 89.676 22.944 89.5 23.424C89.308 23.776 88.98 24.248 88.516 24.84C88.068 25.416 87.548 26.024 86.956 26.664C86.38 27.288 85.788 27.88 85.18 28.44C84.284 29.272 83.476 30.016 82.756 30.672C82.052 31.312 81.348 31.936 80.644 32.544C80.196 32.928 79.748 33.328 79.3 33.744C78.852 34.144 78.404 34.552 77.956 34.968C77.796 35.176 77.764 35.336 77.86 35.448C77.972 35.544 78.356 35.576 79.012 35.544C79.38 35.528 79.668 35.496 79.876 35.448C80.084 35.4 80.308 35.352 80.548 35.304C80.788 35.256 81.124 35.224 81.556 35.208C82.388 35.16 83.172 35.112 83.908 35.064C84.644 35.016 85.236 34.992 85.684 34.992C85.812 34.992 85.916 35.008 85.996 35.04C86.092 35.072 86.22 35.2 86.38 35.424C86.524 35.472 86.612 35.544 86.644 35.64C86.692 35.72 86.692 35.808 86.644 35.904C86.596 36 86.5 36.104 86.356 36.216C86.244 36.216 86.044 36.24 85.756 36.288C85.484 36.352 85.18 36.4 84.844 36.432C84.524 36.48 84.236 36.496 83.98 36.48C83.772 36.464 83.372 36.472 82.78 36.504C82.204 36.552 81.58 36.616 80.908 36.696C80.316 36.792 79.668 36.848 78.964 36.864C78.26 36.88 77.692 36.88 77.26 36.864ZM89.5351 35.232C89.4071 35.104 89.3111 34.944 89.2471 34.752C89.1991 34.56 89.1831 34.368 89.1991 34.176C89.2151 33.984 89.2551 33.824 89.3191 33.696C89.3191 33.568 89.3351 33.472 89.3671 33.408C89.4151 33.328 89.4311 33.256 89.4151 33.192C89.3991 33.128 89.4151 33.016 89.4631 32.856C89.5111 32.696 89.5591 32.544 89.6071 32.4C89.7191 32.144 89.8391 31.84 89.9671 31.488C90.0951 31.12 90.2151 30.76 90.3271 30.408C90.4391 30.056 90.5351 29.752 90.6151 29.496C90.6951 29.24 90.7431 29.08 90.7591 29.016C90.7591 28.824 90.8871 28.72 91.1431 28.704C91.3351 28.64 91.4791 28.64 91.5751 28.704C91.6711 28.752 91.7991 28.904 91.9591 29.16C92.0871 29.288 92.1351 29.48 92.1031 29.736C92.0711 29.992 91.9671 30.312 91.7911 30.696C91.7271 30.824 91.6471 31.008 91.5511 31.248C91.4711 31.488 91.4151 31.704 91.3831 31.896C91.3191 32.024 91.2391 32.208 91.1431 32.448C91.0631 32.672 90.9911 32.888 90.9271 33.096C90.8951 33.176 90.8631 33.296 90.8311 33.456C90.7991 33.6 90.7591 33.76 90.7111 33.936C90.6631 34.096 90.5991 34.24 90.5191 34.368C90.3751 35.024 90.2391 35.408 90.1111 35.52C89.9991 35.632 89.8071 35.536 89.5351 35.232ZM91.8631 25.488C91.7831 25.408 91.7111 25.296 91.6471 25.152C91.5831 24.992 91.5431 24.848 91.5271 24.72C91.5111 24.576 91.5271 24.504 91.5751 24.504C91.7031 24.488 91.8551 24.352 92.0311 24.096C92.2071 23.84 92.2791 23.616 92.2471 23.424C92.2471 23.36 92.2711 23.304 92.3191 23.256C92.3671 23.192 92.4231 23.152 92.4871 23.136C92.6791 23.008 92.8631 22.992 93.0391 23.088C93.2311 23.168 93.4071 23.336 93.5671 23.592C93.7111 23.896 93.7511 24.152 93.6871 24.36C93.6231 24.552 93.4471 24.824 93.1591 25.176C92.9191 25.496 92.6951 25.672 92.4871 25.704C92.2951 25.736 92.0871 25.664 91.8631 25.488ZM100.732 35.928C100.668 35.928 100.58 35.92 100.468 35.904C100.372 35.888 100.292 35.848 100.228 35.784C100.164 35.784 100.052 35.76 99.8917 35.712C99.7317 35.664 99.5877 35.608 99.4597 35.544C99.2997 35.48 99.0837 35.352 98.8117 35.16C98.5397 34.952 98.2677 34.728 97.9957 34.488C97.7237 34.248 97.4917 34.024 97.2997 33.816C97.1237 33.608 97.0357 33.456 97.0357 33.36C97.0357 33.28 96.9957 33.24 96.9157 33.24C96.9157 33.24 96.8917 33.216 96.8437 33.168C96.7957 33.104 96.7717 33.04 96.7717 32.976C96.7717 32.816 96.6917 32.736 96.5317 32.736C96.5317 32.736 96.3957 32.848 96.1237 33.072C95.8517 33.296 95.5557 33.568 95.2357 33.888C94.7877 34.336 94.4517 34.664 94.2277 34.872C94.0197 35.064 93.8517 35.16 93.7237 35.16C93.5957 35.16 93.4517 35.112 93.2917 35.016C93.1317 34.92 92.9877 34.808 92.8597 34.68C92.7477 34.536 92.6917 34.4 92.6917 34.272C92.6917 34.272 92.8517 34.088 93.1717 33.72C93.5077 33.352 93.8997 32.976 94.3477 32.592L95.8837 31.08L95.6197 30.168C95.5077 29.912 95.3877 29.648 95.2597 29.376C95.1477 29.088 95.0597 28.848 94.9957 28.656C94.8037 28.384 94.6997 28.216 94.6837 28.152C94.6837 28.072 94.7477 27.936 94.8757 27.744C95.0037 27.616 95.1077 27.536 95.1877 27.504C95.2837 27.456 95.4277 27.496 95.6197 27.624C95.7157 27.624 95.8437 27.76 96.0037 28.032C96.1637 28.288 96.3077 28.576 96.4357 28.896C96.5797 29.2 96.6517 29.416 96.6517 29.544C96.6517 29.8 96.7477 29.904 96.9397 29.856C97.1317 29.808 97.4197 29.656 97.8037 29.4C97.9957 29.224 98.1477 29.08 98.2597 28.968C98.3717 28.84 98.4277 28.776 98.4277 28.776C98.4757 28.728 98.6197 28.624 98.8597 28.464C99.0997 28.288 99.3477 28.112 99.6037 27.936C99.8597 27.76 100.028 27.656 100.108 27.624C100.236 27.528 100.38 27.528 100.54 27.624C100.7 27.704 100.836 27.832 100.948 28.008C101.06 28.168 101.116 28.336 101.116 28.512C101.116 28.704 101.068 28.856 100.972 28.968C100.876 29.08 100.668 29.224 100.348 29.4C100.06 29.608 99.8037 29.792 99.5797 29.952C99.3717 30.112 99.1477 30.288 98.9077 30.48C98.6837 30.656 98.3957 30.896 98.0437 31.2L97.4197 31.704L97.8037 32.352C97.8677 32.464 97.9557 32.624 98.0677 32.832C98.1957 33.04 98.3157 33.176 98.4277 33.24C98.5237 33.368 98.7077 33.544 98.9797 33.768C99.2517 33.992 99.5157 34.2 99.7717 34.392C100.044 34.568 100.196 34.656 100.228 34.656C100.292 34.656 100.364 34.68 100.444 34.728C100.524 34.776 100.62 34.832 100.732 34.896C100.86 35.024 100.94 35.168 100.972 35.328C101.02 35.488 101.02 35.632 100.972 35.76C100.94 35.872 100.86 35.928 100.732 35.928ZM104.494 35.088C104.158 35.152 103.942 35.176 103.846 35.16C103.766 35.128 103.638 35.032 103.462 34.872C103.206 34.744 102.99 34.584 102.814 34.392C102.654 34.2 102.534 34 102.454 33.792C102.39 33.568 102.366 33.384 102.382 33.24C102.43 32.68 102.566 32.08 102.79 31.44C103.014 30.8 103.286 30.184 103.606 29.592C103.926 29 104.27 28.496 104.638 28.08C105.022 27.648 105.39 27.368 105.742 27.24C106.062 27.112 106.366 27.064 106.654 27.096C106.942 27.128 107.15 27.28 107.278 27.552C107.518 28.016 107.462 28.312 107.11 28.44C107.062 28.44 107.006 28.464 106.942 28.512C106.878 28.544 106.846 28.592 106.846 28.656C106.91 28.688 107.086 28.696 107.374 28.68C107.662 28.648 107.95 28.6 108.238 28.536C108.542 28.456 108.742 28.376 108.838 28.296C108.934 28.248 109.006 28.224 109.054 28.224C109.102 28.224 109.222 28.24 109.414 28.272C109.686 28.352 109.822 28.448 109.822 28.56C109.822 28.624 109.846 28.688 109.894 28.752C109.942 28.8 109.998 28.824 110.062 28.824C110.174 28.84 110.158 28.912 110.014 29.04C109.886 29.168 109.662 29.344 109.342 29.568C109.038 29.76 108.846 29.888 108.766 29.952C108.702 30 108.694 30.112 108.742 30.288C108.87 30.592 108.878 30.944 108.766 31.344C108.654 31.744 108.454 32.152 108.166 32.568C107.878 32.984 107.526 33.376 107.11 33.744C106.71 34.096 106.278 34.4 105.814 34.656C105.366 34.896 104.926 35.04 104.494 35.088ZM104.086 34.032C104.15 34.032 104.262 34 104.422 33.936C104.582 33.856 104.71 33.792 104.806 33.744C104.87 33.68 104.95 33.608 105.046 33.528C105.158 33.432 105.246 33.376 105.31 33.36C105.374 33.36 105.454 33.336 105.55 33.288C105.646 33.224 105.782 33.104 105.958 32.928C106.134 32.736 106.366 32.456 106.654 32.088C106.974 31.736 107.222 31.416 107.398 31.128C107.574 30.824 107.622 30.544 107.542 30.288C107.526 30.224 107.478 30.184 107.398 30.168C107.334 30.152 107.246 30.112 107.134 30.048C106.974 30.048 106.822 30.008 106.678 29.928C106.55 29.832 106.398 29.712 106.222 29.568L105.838 29.088L105.43 29.496C105.174 29.752 104.902 30.136 104.614 30.648C104.342 31.144 104.11 31.656 103.918 32.184C103.726 32.696 103.614 33.104 103.582 33.408C103.566 33.648 103.606 33.808 103.702 33.888C103.798 33.968 103.926 34.016 104.086 34.032ZM112.715 35.784C112.315 35.816 111.931 35.792 111.563 35.712C111.211 35.632 110.907 35.496 110.651 35.304C110.411 35.096 110.243 34.848 110.147 34.56C110.035 34.336 109.979 34.184 109.979 34.104C109.979 34.008 110.035 33.928 110.147 33.864C110.275 33.864 110.387 33.904 110.483 33.984C110.595 34.048 110.739 34.12 110.915 34.2C111.155 34.408 111.443 34.52 111.779 34.536C112.131 34.552 112.451 34.496 112.739 34.368C113.027 34.24 113.187 34.08 113.219 33.888C113.219 33.824 113.195 33.712 113.147 33.552C113.099 33.392 113.043 33.224 112.979 33.048C112.547 32.44 112.227 31.84 112.019 31.248C111.827 30.64 111.731 30.144 111.731 29.76C111.731 29.472 111.819 29.168 111.995 28.848C112.171 28.512 112.411 28.232 112.715 28.008C113.003 27.704 113.323 27.432 113.675 27.192C114.027 26.952 114.379 26.744 114.731 26.568C115.099 26.392 115.427 26.264 115.715 26.184C115.891 26.184 116.123 26.208 116.411 26.256C116.699 26.304 116.899 26.36 117.011 26.424C117.187 26.488 117.355 26.664 117.515 26.952C117.675 27.224 117.755 27.496 117.755 27.768C117.755 27.88 117.723 28.024 117.659 28.2C117.595 28.376 117.491 28.584 117.347 28.824C117.283 29 117.211 29.168 117.131 29.328C117.051 29.472 117.011 29.576 117.011 29.64C116.931 29.816 116.819 29.904 116.675 29.904C116.547 29.888 116.411 29.816 116.267 29.688C116.139 29.544 116.035 29.376 115.955 29.184C115.891 28.944 115.867 28.752 115.883 28.608C115.899 28.448 115.963 28.28 116.075 28.104C116.251 27.928 116.339 27.808 116.339 27.744C116.339 27.68 116.251 27.648 116.075 27.648C115.963 27.648 115.755 27.72 115.451 27.864C115.163 27.992 114.851 28.168 114.515 28.392C114.195 28.6 113.915 28.824 113.675 29.064C113.371 29.352 113.187 29.56 113.123 29.688C113.075 29.816 113.051 30.016 113.051 30.288C113.051 30.512 113.099 30.792 113.195 31.128C113.307 31.464 113.419 31.688 113.531 31.8C113.531 31.8 113.587 31.912 113.699 32.136C113.811 32.344 113.947 32.568 114.107 32.808C114.571 33.832 114.691 34.568 114.467 35.016C114.243 35.464 113.659 35.72 112.715 35.784ZM125.627 36.6C125.547 36.6 125.451 36.56 125.339 36.48C125.227 36.416 125.123 36.328 125.027 36.216C124.947 36.104 124.907 35.984 124.907 35.856C124.907 35.856 124.899 35.808 124.883 35.712C124.883 35.6 124.851 35.488 124.787 35.376C124.787 35.248 124.787 35.104 124.787 34.944C124.803 34.768 124.843 34.592 124.907 34.416C124.907 34.24 124.931 34.048 124.979 33.84C125.027 33.616 125.083 33.448 125.147 33.336C125.147 33.16 125.187 32.936 125.267 32.664C125.363 32.376 125.443 32.112 125.507 31.872C125.683 31.344 125.811 30.96 125.891 30.72C125.987 30.48 126.051 30.304 126.083 30.192C126.115 30.064 126.131 29.936 126.131 29.808C126.179 29.68 126.251 29.448 126.347 29.112C126.443 28.776 126.539 28.432 126.635 28.08C126.747 27.712 126.819 27.448 126.851 27.288C126.915 27.224 126.947 27.168 126.947 27.12C126.963 27.056 126.971 26.992 126.971 26.928C126.971 26.928 127.027 26.744 127.139 26.376C127.251 26.008 127.395 25.584 127.571 25.104C127.859 24.256 128.051 23.64 128.147 23.256C128.259 22.872 128.307 22.6 128.291 22.44C128.291 22.28 128.251 22.12 128.171 21.96C128.059 21.752 128.059 21.592 128.171 21.48C128.235 21.416 128.291 21.344 128.339 21.264C128.387 21.168 128.411 21.12 128.411 21.12C128.411 21.088 128.515 21.032 128.723 20.952C128.931 20.872 129.187 20.784 129.491 20.688C129.795 20.576 130.099 20.472 130.403 20.376C130.723 20.28 130.987 20.2 131.195 20.136C131.243 20.136 131.315 20.136 131.411 20.136C131.523 20.136 131.643 20.136 131.771 20.136C131.915 20.136 132.051 20.136 132.179 20.136C132.595 20.2 133.019 20.32 133.451 20.496C133.899 20.672 134.275 20.92 134.579 21.24C134.771 21.416 134.939 21.624 135.083 21.864C135.243 22.104 135.443 22.496 135.683 23.04C135.683 23.104 135.699 23.24 135.731 23.448C135.779 23.64 135.803 23.832 135.803 24.024C135.803 24.504 135.683 25.008 135.443 25.536C135.203 26.064 134.859 26.6 134.411 27.144C133.963 27.672 133.419 28.2 132.779 28.728C132.107 29.272 131.411 29.64 130.691 29.832C129.971 30.024 129.331 30.064 128.771 29.952C128.659 29.904 128.555 29.808 128.459 29.664C128.379 29.52 128.323 29.376 128.291 29.232C128.259 29.088 128.267 28.992 128.315 28.944C128.443 28.912 128.635 28.904 128.891 28.92C129.147 28.92 129.555 28.816 130.115 28.608C130.291 28.544 130.475 28.472 130.667 28.392C130.859 28.296 131.011 28.216 131.123 28.152C131.443 27.944 131.811 27.664 132.227 27.312C132.643 26.96 133.027 26.504 133.379 25.944C133.523 25.72 133.667 25.456 133.811 25.152C133.955 24.832 134.075 24.512 134.171 24.192C134.283 23.872 134.339 23.608 134.339 23.4C134.467 22.984 134.387 22.64 134.099 22.368C133.827 22.08 133.387 21.904 132.779 21.84C132.587 21.792 132.291 21.808 131.891 21.888C131.491 21.952 131.107 22.04 130.739 22.152C130.371 22.264 130.123 22.36 129.995 22.44C129.931 22.44 129.891 22.488 129.875 22.584C129.859 22.68 129.819 22.792 129.755 22.92C129.755 23.032 129.707 23.272 129.611 23.64C129.515 23.992 129.403 24.32 129.275 24.624C129.163 24.976 129.027 25.368 128.867 25.8C128.707 26.216 128.595 26.544 128.531 26.784C128.467 27.04 128.387 27.288 128.291 27.528C128.211 27.768 128.171 27.888 128.171 27.888C128.171 27.952 128.123 28.088 128.027 28.296C127.947 28.504 127.875 28.728 127.811 28.968C127.747 29.272 127.659 29.616 127.547 30C127.451 30.384 127.339 30.728 127.211 31.032C127.035 31.624 126.883 32.216 126.755 32.808C126.627 33.384 126.619 33.76 126.731 33.936C126.907 33.936 126.971 34.08 126.923 34.368C126.875 34.64 126.731 35.016 126.491 35.496C126.331 35.896 126.211 36.168 126.131 36.312C126.051 36.472 125.979 36.56 125.915 36.576C125.851 36.592 125.755 36.6 125.627 36.6ZM135.772 36.216C135.564 36.136 135.412 36.016 135.316 35.856C135.22 35.68 135.164 35.432 135.148 35.112C135.148 34.92 135.18 34.664 135.244 34.344C135.308 34.024 135.38 33.656 135.46 33.24C135.46 33.208 135.46 33.176 135.46 33.144C135.476 33.096 135.484 33.064 135.484 33.048C135.5 32.984 135.516 32.888 135.532 32.76C135.564 32.632 135.588 32.536 135.604 32.472C135.62 32.392 135.628 32.392 135.628 32.472L135.796 31.824C135.876 31.536 135.956 31.248 136.036 30.96C136.116 30.672 136.188 30.424 136.252 30.216C136.316 29.992 136.356 29.864 136.372 29.832C136.372 29.832 136.404 29.744 136.468 29.568C136.532 29.376 136.596 29.192 136.66 29.016C136.932 28.264 137.18 27.632 137.404 27.12C137.628 26.592 137.828 26.208 138.004 25.968C138.02 25.92 138.044 25.864 138.076 25.8C138.108 25.72 138.132 25.656 138.148 25.608C138.164 25.48 138.18 25.384 138.196 25.32C138.228 25.24 138.268 25.168 138.316 25.104C138.348 25.04 138.396 24.96 138.46 24.864C138.524 24.752 138.596 24.616 138.676 24.456L138.772 24.192C138.868 23.984 138.988 23.752 139.132 23.496C139.276 23.24 139.38 23.056 139.444 22.944C139.508 22.8 139.604 22.632 139.732 22.44C139.86 22.232 139.956 22.096 140.02 22.032L139.996 22.008C140.076 21.864 140.172 21.784 140.284 21.768C140.412 21.736 140.548 21.72 140.692 21.72C140.916 21.72 141.044 21.752 141.076 21.816C141.108 21.88 141.124 22.024 141.124 22.248C141.124 22.488 141.116 22.664 141.1 22.776C141.1 22.872 141.036 22.984 140.908 23.112H140.932C140.964 23.08 140.956 23.12 140.908 23.232C140.86 23.328 140.82 23.4 140.788 23.448C140.756 23.528 140.716 23.616 140.668 23.712C140.636 23.808 140.596 23.88 140.548 23.928C140.5 23.992 140.38 24.208 140.188 24.576C140.012 24.928 139.804 25.344 139.564 25.824C139.34 26.304 139.124 26.768 138.916 27.216C138.708 27.664 138.556 28.008 138.46 28.248L138.34 28.608C138.308 28.672 138.292 28.72 138.292 28.752C138.244 28.864 138.196 28.976 138.148 29.088C138.1 29.2 138.052 29.296 138.004 29.376L137.596 30.768L137.476 31.272L137.26 31.8L137.116 32.256C137.084 32.352 137.06 32.44 137.044 32.52C137.028 32.6 136.996 32.664 136.948 32.712C136.948 32.728 136.94 32.752 136.924 32.784C136.924 32.8 136.924 32.816 136.924 32.832C136.86 33.088 136.788 33.448 136.708 33.912C136.628 34.376 136.572 34.864 136.54 35.376C136.54 35.392 136.532 35.408 136.516 35.424C136.516 35.44 136.516 35.456 136.516 35.472C136.468 35.808 136.388 36.032 136.276 36.144C136.164 36.256 135.996 36.28 135.772 36.216ZM140.258 34.824C140.194 34.824 140.114 34.808 140.018 34.776C139.938 34.728 139.898 34.704 139.898 34.704C139.898 34.64 139.874 34.56 139.826 34.464C139.794 34.368 139.778 34.288 139.778 34.224C139.666 34.16 139.602 34.096 139.586 34.032C139.57 33.952 139.594 33.824 139.658 33.648C139.754 33.488 139.882 33.232 140.042 32.88C140.202 32.512 140.37 32.12 140.546 31.704C140.722 31.272 140.89 30.848 141.05 30.432C141.21 30.016 141.346 29.664 141.458 29.376C141.57 29.072 141.634 28.888 141.65 28.824C141.65 28.76 141.674 28.68 141.722 28.584C141.77 28.488 141.826 28.408 141.89 28.344C142.018 28.232 142.154 28.224 142.298 28.32C142.442 28.4 142.562 28.544 142.658 28.752C142.77 28.944 142.826 29.16 142.826 29.4C142.826 29.512 142.746 29.8 142.586 30.264C142.426 30.712 142.21 31.248 141.938 31.872C141.682 32.496 141.394 33.128 141.074 33.768C140.834 34.232 140.682 34.528 140.618 34.656C140.554 34.768 140.434 34.824 140.258 34.824ZM143.786 25.728C143.594 25.728 143.386 25.656 143.162 25.512C142.954 25.352 142.77 25.16 142.61 24.936C142.466 24.696 142.394 24.456 142.394 24.216C142.394 24.136 142.442 24.024 142.538 23.88C142.634 23.736 142.73 23.592 142.826 23.448C142.922 23.304 142.97 23.216 142.97 23.184C143.098 23.184 143.194 23.192 143.258 23.208C143.338 23.208 143.434 23.24 143.546 23.304C143.722 23.704 143.938 24.032 144.194 24.288C144.466 24.544 144.602 24.76 144.602 24.936C144.602 25.288 144.57 25.512 144.506 25.608C144.442 25.688 144.202 25.728 143.786 25.728ZM152.775 34.896C152.455 34.896 152.191 34.832 151.983 34.704C151.775 34.56 151.599 34.328 151.455 34.008C151.391 33.784 151.335 33.536 151.287 33.264C151.255 32.976 151.239 32.712 151.239 32.472C151.239 32.216 151.263 32.048 151.311 31.968C151.375 31.904 151.399 31.792 151.383 31.632C151.383 31.456 151.383 31.272 151.383 31.08C151.367 30.76 151.287 30.584 151.143 30.552C151.015 30.504 150.823 30.552 150.567 30.696C150.279 30.872 149.903 31.112 149.439 31.416C148.975 31.704 148.487 32.024 147.975 32.376C147.479 32.728 147.007 33.096 146.559 33.48C146.207 33.864 145.991 34.16 145.911 34.368C145.847 34.56 145.751 34.656 145.623 34.656C145.495 34.72 145.383 34.728 145.287 34.68C145.207 34.616 145.087 34.52 144.927 34.392C144.815 34.264 144.703 34.144 144.591 34.032C144.479 33.904 144.407 33.808 144.375 33.744C144.375 33.664 144.399 33.496 144.447 33.24C144.495 32.984 144.551 32.728 144.615 32.472C144.695 32.216 144.751 32.048 144.783 31.968C144.863 31.968 144.927 31.888 144.975 31.728C145.039 31.568 145.135 31.392 145.263 31.2C145.295 31.008 145.375 30.752 145.503 30.432C145.647 30.096 145.775 29.8 145.887 29.544C146.111 29.16 146.263 28.84 146.343 28.584C146.439 28.328 146.503 28.008 146.535 27.624C146.519 27.56 146.535 27.504 146.583 27.456C146.631 27.392 146.687 27.36 146.751 27.36C146.879 27.232 147.031 27.2 147.207 27.264C147.383 27.312 147.543 27.432 147.687 27.624C147.975 28.008 148.087 28.408 148.023 28.824C147.975 29.224 147.719 29.8 147.255 30.552C147.143 30.808 147.055 31.008 146.991 31.152C146.943 31.28 146.919 31.384 146.919 31.464C146.919 31.464 146.999 31.408 147.159 31.296C147.335 31.184 147.527 31.056 147.735 30.912C147.959 30.752 148.135 30.632 148.263 30.552C148.343 30.472 148.527 30.328 148.815 30.12C149.103 29.912 149.407 29.712 149.727 29.52C150.063 29.312 150.311 29.192 150.471 29.16C150.599 29.096 150.735 29.04 150.879 28.992C151.023 28.928 151.127 28.896 151.191 28.896C151.319 28.896 151.479 28.968 151.671 29.112C151.879 29.24 152.071 29.4 152.247 29.592C152.423 29.768 152.527 29.92 152.559 30.048C152.559 30.112 152.559 30.176 152.559 30.24C152.575 30.304 152.591 30.368 152.607 30.432C152.671 30.64 152.703 30.92 152.703 31.272C152.719 31.624 152.711 31.944 152.679 32.232C152.647 32.52 152.591 32.688 152.511 32.736C152.511 32.736 152.511 32.76 152.511 32.808C152.527 32.84 152.567 32.856 152.631 32.856C152.631 32.92 152.631 32.96 152.631 32.976C152.551 32.976 152.519 33.048 152.535 33.192C152.551 33.32 152.599 33.464 152.679 33.624C152.775 33.784 152.871 33.912 152.967 34.008C153.159 34.2 153.239 34.384 153.207 34.56C153.175 34.72 153.031 34.832 152.775 34.896ZM155.252 35.472C155.092 35.36 154.972 35.256 154.892 35.16C154.812 35.064 154.78 34.928 154.796 34.752C154.828 34.512 154.876 34.264 154.94 34.008C155.004 33.736 155.084 33.472 155.18 33.216C155.228 32.928 155.284 32.64 155.348 32.352C155.428 32.064 155.556 31.792 155.732 31.536C155.94 30.944 156.156 30.36 156.38 29.784C156.604 29.192 156.796 28.576 156.956 27.936C157.196 27.36 157.412 26.848 157.604 26.4C157.812 25.952 158.06 25.376 158.348 24.672C158.508 24.304 158.644 23.896 158.756 23.448C158.884 22.984 159.076 22.576 159.332 22.224C159.444 22.08 159.524 21.96 159.572 21.864C159.636 21.752 159.7 21.648 159.764 21.552C159.796 21.456 159.9 21.424 160.076 21.456C160.268 21.488 160.404 21.56 160.484 21.672C160.564 21.656 160.66 21.76 160.772 21.984C160.884 22.208 160.924 22.384 160.892 22.512C160.892 22.688 160.828 22.88 160.7 23.088C160.636 23.152 160.572 23.248 160.508 23.376C160.444 23.488 160.348 23.64 160.22 23.832C160.156 24.04 160.092 24.248 160.028 24.456C159.964 24.664 159.892 24.856 159.812 25.032C159.732 25.208 159.644 25.384 159.548 25.56C159.452 25.736 159.388 25.88 159.356 25.992C159.212 26.36 159.052 26.72 158.876 27.072C158.716 27.408 158.572 27.768 158.444 28.152C158.316 28.52 158.18 28.912 158.036 29.328C157.908 29.728 157.732 30.112 157.508 30.48C157.396 30.64 157.308 30.856 157.244 31.128C157.18 31.4 157.116 31.664 157.052 31.92C156.94 32.208 156.836 32.472 156.74 32.712C156.66 32.952 156.62 33.104 156.62 33.168C156.508 33.52 156.42 33.872 156.356 34.224C156.292 34.56 156.188 34.856 156.044 35.112C156.028 35.352 155.956 35.512 155.828 35.592C155.716 35.672 155.524 35.632 155.252 35.472ZM160.988 35.856C160.732 35.824 160.54 35.776 160.412 35.712C160.284 35.632 160.044 35.464 159.692 35.208C159.5 35.016 159.236 34.72 158.9 34.32C158.564 33.92 158.228 33.496 157.892 33.048C157.556 32.584 157.276 32.192 157.052 31.872L158.036 30.552C158.244 30.808 158.412 31.048 158.54 31.272C158.668 31.496 158.772 31.648 158.852 31.728C159.22 32.272 159.508 32.712 159.716 33.048C159.94 33.384 160.14 33.656 160.316 33.864C160.492 34.072 160.676 34.256 160.868 34.416C161.076 34.576 161.332 34.744 161.636 34.92C161.684 34.952 161.732 35 161.78 35.064C161.828 35.128 161.844 35.224 161.828 35.352C161.764 35.528 161.692 35.64 161.612 35.688C161.548 35.72 161.34 35.776 160.988 35.856ZM156.98 31.608C156.884 31.336 156.916 31.064 157.076 30.792C157.252 30.504 157.444 30.304 157.652 30.192C157.716 30.08 157.78 30.008 157.844 29.976C157.924 29.928 157.972 29.872 157.988 29.808C158.02 29.744 158.1 29.656 158.228 29.544C158.372 29.432 158.5 29.328 158.612 29.232C158.868 29.072 159.156 28.88 159.476 28.656C159.812 28.416 160.132 28.176 160.436 27.936C160.74 27.696 160.996 27.488 161.204 27.312C161.428 27.136 161.564 27.024 161.612 26.976C161.66 26.912 161.724 26.872 161.804 26.856C161.9 26.824 162.02 26.84 162.164 26.904C162.356 26.952 162.484 27.032 162.548 27.144C162.612 27.24 162.644 27.432 162.644 27.72C162.692 27.896 162.62 28.088 162.428 28.296C162.252 28.488 161.98 28.704 161.612 28.944C161.484 29.024 161.308 29.144 161.084 29.304C160.876 29.464 160.692 29.616 160.532 29.76C160.42 29.824 160.252 29.936 160.028 30.096C159.82 30.24 159.636 30.384 159.476 30.528C159.348 30.608 159.18 30.752 158.972 30.96C158.764 31.152 158.556 31.296 158.348 31.392C157.836 31.872 157.5 32.128 157.34 32.16C157.18 32.192 157.06 32.008 156.98 31.608ZM165.505 35.64C165.297 35.64 165.129 35.6 165.001 35.52C164.889 35.44 164.745 35.328 164.569 35.184C164.265 34.864 164.049 34.56 163.921 34.272C163.793 33.968 163.753 33.68 163.801 33.408C163.849 33.28 163.865 33.16 163.849 33.048C163.849 32.92 163.849 32.856 163.849 32.856C163.769 32.776 163.745 32.728 163.777 32.712C163.809 32.68 163.841 32.632 163.873 32.568C163.969 32.568 164.001 32.48 163.969 32.304C163.937 32.176 164.001 31.896 164.161 31.464C164.321 31.032 164.521 30.624 164.761 30.24C164.857 30.08 165.001 29.872 165.193 29.616C165.385 29.344 165.593 29.08 165.817 28.824C166.057 28.552 166.273 28.336 166.465 28.176C166.865 27.84 167.217 27.592 167.521 27.432C167.825 27.272 168.153 27.152 168.505 27.072C168.857 26.992 169.097 26.952 169.225 26.952C169.369 26.952 169.561 27.08 169.801 27.336C170.169 27.496 170.433 27.688 170.593 27.912C170.769 28.136 170.881 28.464 170.929 28.896C170.977 29.376 170.937 29.928 170.809 30.552C170.697 31.16 170.321 31.92 169.681 32.832C169.281 33.408 168.913 33.84 168.577 34.128C168.241 34.4 167.841 34.672 167.377 34.944C167.041 35.168 166.737 35.336 166.465 35.448C166.193 35.544 165.873 35.608 165.505 35.64ZM167.809 33.096C168.193 32.664 168.497 32.256 168.721 31.872C168.961 31.488 169.185 31 169.393 30.408C169.457 30.232 169.497 30.016 169.513 29.76C169.529 29.488 169.521 29.24 169.489 29.016C169.473 28.776 169.417 28.64 169.321 28.608C169.129 28.496 168.897 28.464 168.625 28.512C168.353 28.544 168.057 28.696 167.737 28.968C167.241 29.384 166.809 29.904 166.441 30.528C166.073 31.136 165.713 31.832 165.361 32.616C165.121 33.192 165.065 33.656 165.193 34.008C165.337 34.344 165.633 34.464 166.081 34.368C166.545 34.256 167.121 33.832 167.809 33.096ZM173.582 34.752C173.278 34.864 173.022 34.92 172.814 34.92C172.622 34.904 172.406 34.808 172.166 34.632C171.862 34.344 171.758 34.056 171.854 33.768C171.966 33.464 172.23 33.168 172.646 32.88C172.934 32.704 173.142 32.608 173.27 32.592C173.414 32.576 173.63 32.632 173.918 32.76C174.398 33.064 174.606 33.4 174.542 33.768C174.494 34.136 174.174 34.464 173.582 34.752Z" fill="white"/>
<defs>
<clipPath id="clip0_18_35">
<rect width="60" height="60" fill="white"/>
</clipPath>
</defs>
</svg>
