<svg width="189" height="60" viewBox="0 0 189 60" fill="none" xmlns="http://www.w3.org/2000/svg">
<g clip-path="url(#clip0_18_35)">
<path d="M10.0004 26C7.79439 26 6.00049 27.795 6.00049 30C6.00049 32.2061 7.79451 34 10.0004 34C12.2065 34 14.0004 32.2059 14.0004 30C14.0004 27.795 12.2064 26 10.0004 26ZM10.0004 32C8.89748 32 8.00041 31.104 8.00041 30C8.00041 28.897 8.89736 28 10.0004 28C11.1025 28 12.0005 28.8969 12.0005 30C12.0005 31.104 11.1025 32 10.0004 32Z" fill="#FFFD9F"/>
<path d="M40.5565 42.0269C38.8815 42.0269 37.3705 43.084 36.7965 44.6599C36.0425 46.7319 37.1146 49.0309 39.1865 49.7859C39.6286 49.9459 40.0885 50.0279 40.5555 50.0279C42.2305 50.0279 43.7415 48.97 44.3135 47.395C45.0675 45.323 43.9955 43.0229 41.9235 42.2689C41.4815 42.108 41.0215 42.0269 40.5565 42.0269ZM42.4345 46.711C42.0685 47.718 40.8915 48.2761 39.8704 47.9071C38.8344 47.529 38.2985 46.3791 38.6755 45.3441C38.9625 44.5561 39.7185 44.0271 40.5565 44.0271C40.7885 44.0271 41.0175 44.0681 41.2394 44.1482C42.2755 44.525 42.8115 45.675 42.4345 46.711Z" fill="#FFFC72"/>
<path d="M46.0275 34.993C47.7035 34.993 49.2145 33.935 49.7865 32.36C50.5405 30.2881 49.4684 27.988 47.3955 27.2331C46.9545 27.0731 46.4945 26.992 46.0285 26.992C44.3525 26.992 42.8415 28.05 42.2686 29.625C41.5146 31.697 42.5875 33.997 44.6595 34.751C45.1005 34.911 45.5605 34.993 46.0275 34.993ZM44.1475 30.308C44.4345 29.5209 45.1905 28.992 46.0285 28.992C46.2615 28.992 46.4905 29.033 46.7125 29.113C47.7486 29.49 48.2845 30.64 47.9075 31.676C47.5415 32.683 46.3645 33.244 45.3436 32.871C44.3075 32.494 43.7706 31.345 44.1475 30.308Z" fill="#FF1525"/>
<path d="M40.0007 35V5.00004C40.0007 2.24402 37.7577 0 35.0007 0H5.00065C2.2437 0 0.000732422 2.24402 0.000732422 5.00004V35C0.000732422 37.757 2.2437 40.0001 5.00077 40.0001H35.0008C37.7577 40 40.0007 37.757 40.0007 35ZM2.00065 35V5.00004C2.00065 3.34605 3.34667 2.00004 5.00065 2.00004H35.0007C36.6546 2.00004 38.0007 3.34605 38.0007 5.00004V35C38.0007 36.6551 36.6546 38 35.0007 38H5.00065C3.34667 38 2.00065 36.655 2.00065 35Z" fill="#FF1525"/>
<path d="M10.0004 6C7.79439 6 6.00049 7.79496 6.00049 9.99996C6.00049 12.206 7.79451 13.9999 10.0004 13.9999C12.2065 13.9999 14.0004 12.2059 14.0004 9.99996C14.0004 7.79496 12.2064 6 10.0004 6ZM10.0004 12C8.89748 12 8.00041 11.104 8.00041 9.99996C8.00041 8.89699 8.89736 7.99992 10.0004 7.99992C11.1025 7.99992 12.0005 8.89687 12.0005 9.99996C12.0005 11.104 11.1025 12 10.0004 12Z" fill="#1EBA2B"/>
<path d="M56.7095 22.11L42.3275 16.875C41.8096 16.688 41.2345 16.954 41.0466 17.473C40.8566 17.992 41.1246 18.566 41.6435 18.755L56.0255 23.989C57.5795 24.555 58.3845 26.28 57.8184 27.834L47.5575 56.025C46.9925 57.58 45.2665 58.384 43.7125 57.819L15.5215 47.558C13.9685 46.992 13.1634 45.267 13.7285 43.712L14.1966 42.426C14.3865 41.907 14.1176 41.333 13.5996 41.145C13.0766 40.957 12.5066 41.224 12.3176 41.743L11.8495 43.028C10.9065 45.619 12.2475 48.494 14.8385 49.437L43.0286 59.698C43.5915 59.902 44.1666 60 44.7326 60C46.7756 59.9991 48.6986 58.737 49.4366 56.709L59.6977 28.5181C60.6406 25.927 59.3005 23.053 56.7095 22.11Z" fill="#1EBA2B"/>
<path d="M27.2615 41.518C26.7826 42.386 25.7666 42.772 24.8355 42.435C24.2695 42.229 23.9494 41.822 23.7805 41.516C23.5135 41.033 22.9045 40.8591 22.4214 41.125C21.9375 41.393 21.7634 42.0009 22.0304 42.4849C22.5033 43.3379 23.2564 43.988 24.1514 44.3139C24.6044 44.4789 25.0674 44.5578 25.5243 44.5578C26.9414 44.5578 28.2874 43.7968 29.0133 42.4828C29.2794 41.9998 29.1033 41.3918 28.6203 41.1248C28.1355 40.858 27.5275 41.034 27.2615 41.518Z" fill="#FF1525"/>
<path d="M20.0005 16C17.7944 16 16.0005 17.7949 16.0005 19.9999C16.0005 22.206 17.7945 23.9999 20.0005 23.9999C22.2064 23.9999 24.0004 22.2059 24.0004 19.9999C24.0005 17.795 22.2065 16 20.0005 16ZM20.0005 22C18.8975 22 18.0004 21.104 18.0004 19.9999C18.0004 18.897 18.8974 17.9999 20.0005 17.9999C21.1025 17.9999 22.0005 18.8968 22.0005 19.9999C22.0005 21.104 21.1025 22 20.0005 22Z" fill="#FF1525"/>
<path d="M30.0006 26C27.7945 26 26.0006 27.795 26.0006 30C26.0006 32.2061 27.7946 34 30.0006 34C32.2065 34 34.0005 32.2059 34.0005 30C34.0005 27.795 32.2065 26 30.0006 26ZM30.0006 32C28.8976 32 28.0005 31.104 28.0005 30C28.0005 28.897 28.8975 28 30.0006 28C31.1026 28 32.0006 28.8969 32.0006 30C32.0005 31.104 31.1025 32 30.0006 32Z" fill="#1EBA2B"/>
<path d="M30.0006 6C27.7945 6 26.0006 7.79496 26.0006 9.99996C26.0006 12.206 27.7946 13.9999 30.0006 13.9999C32.2065 13.9999 34.0005 12.2059 34.0005 9.99996C34.0005 7.79496 32.2065 6 30.0006 6ZM30.0006 12C28.8976 12 28.0005 11.104 28.0005 9.99996C28.0005 8.89699 28.8975 7.99992 30.0006 7.99992C31.1026 7.99992 32.0006 8.89687 32.0006 9.99996C32.0005 11.104 31.1025 12 30.0006 12Z" fill="#FFFC72"/>
</g>
<path d="M65.16 22.056C65.032 22.056 64.888 21.952 64.728 21.744C64.568 21.536 64.496 21.336 64.512 21.144C64.528 20.888 64.6 20.52 64.728 20.04C64.856 19.56 65 19.072 65.16 18.576C65.32 18.08 65.464 17.688 65.592 17.4C65.656 17.144 65.712 16.92 65.76 16.728C65.824 16.52 65.864 16.384 65.88 16.32C65.928 16.256 66 16.088 66.096 15.816C66.208 15.544 66.296 15.28 66.36 15.024C66.392 14.896 66.456 14.656 66.552 14.304C66.664 13.936 66.792 13.512 66.936 13.032C67.096 12.552 67.248 12.08 67.392 11.616C67.552 11.152 67.688 10.744 67.8 10.392C67.912 10.04 67.984 9.808 68.016 9.696C68.144 9.504 68.24 9.32 68.304 9.144C68.368 8.968 68.408 8.848 68.424 8.784C68.52 8.72 68.576 8.64 68.592 8.544C68.608 8.432 68.616 8.344 68.616 8.28C68.616 8.2 68.64 8.136 68.688 8.088C68.752 8.04 68.784 7.984 68.784 7.92C68.848 7.872 68.888 7.8 68.904 7.704C68.92 7.592 68.968 7.496 69.048 7.416L69.168 7.008L70.584 6.984C70.552 7.176 70.504 7.416 70.44 7.704C70.376 7.976 70.224 8.344 69.984 8.808C69.904 9.128 69.808 9.416 69.696 9.672C69.6 9.928 69.56 10.096 69.576 10.176C69.544 10.208 69.472 10.368 69.36 10.656C69.264 10.944 69.144 11.296 69 11.712C68.872 12.128 68.736 12.544 68.592 12.96C68.464 13.376 68.344 13.744 68.232 14.064C68.136 14.368 68.072 14.56 68.04 14.64C67.912 14.896 67.768 15.272 67.608 15.768C67.448 16.264 67.208 16.936 66.888 17.784C66.76 18.04 66.6 18.424 66.408 18.936C66.232 19.448 66.088 19.912 65.976 20.328C65.8 20.952 65.672 21.384 65.592 21.624C65.528 21.88 65.472 22.016 65.424 22.032C65.376 22.064 65.288 22.072 65.16 22.056ZM65.352 7.752C64.904 7.768 64.568 7.744 64.344 7.68C64.136 7.616 64.064 7.456 64.128 7.2C64.176 7.008 64.28 6.864 64.44 6.768C64.6 6.672 64.832 6.6 65.136 6.552C65.312 6.52 65.536 6.48 65.808 6.432C66.096 6.384 66.368 6.336 66.624 6.288C67.152 6.224 67.584 6.168 67.92 6.12C68.272 6.072 68.632 6.032 69 6C69.368 5.968 69.832 5.936 70.392 5.904C70.856 5.872 71.248 5.848 71.568 5.832C71.904 5.8 72.072 5.784 72.072 5.784C72.12 5.784 72.288 5.8 72.576 5.832C72.864 5.864 73.176 5.904 73.512 5.952C73.848 6 74.096 6.056 74.256 6.12C74.624 6.2 74.888 6.312 75.048 6.456C75.224 6.6 75.344 6.808 75.408 7.08C75.456 7.272 75.456 7.392 75.408 7.44C75.36 7.472 75.272 7.52 75.144 7.584C74.776 7.696 74.504 7.752 74.328 7.752C74.152 7.752 73.952 7.712 73.728 7.632C73.648 7.552 73.552 7.48 73.44 7.416C73.344 7.352 73.168 7.304 72.912 7.272C72.672 7.224 72.288 7.184 71.76 7.152C71.312 7.2 70.92 7.224 70.584 7.224C70.248 7.224 70.08 7.264 70.08 7.344L68.664 7.416L67.488 7.536C67.328 7.552 67.104 7.576 66.816 7.608C66.528 7.624 66.248 7.648 65.976 7.68C65.704 7.696 65.496 7.72 65.352 7.752ZM74.9649 19.704C74.8529 19.72 74.7329 19.72 74.6049 19.704C74.4929 19.672 74.3809 19.616 74.2689 19.536C74.1409 19.408 74.0529 19.312 74.0049 19.248C73.9569 19.168 73.9409 19.048 73.9569 18.888C73.9889 18.728 74.0449 18.48 74.1249 18.144C74.2049 17.888 74.3009 17.536 74.4129 17.088C74.5249 16.624 74.6449 16.168 74.7729 15.72C74.8209 15.464 74.8849 15.2 74.9649 14.928C75.0609 14.656 75.1569 14.408 75.2529 14.184C75.3489 13.944 75.4209 13.76 75.4689 13.632C75.5969 13.184 75.7169 12.792 75.8289 12.456C75.9569 12.12 76.1089 11.736 76.2849 11.304C76.4609 10.856 76.6769 10.264 76.9329 9.528C77.2849 8.568 77.5489 7.84 77.7249 7.344C77.9169 6.832 78.0529 6.464 78.1329 6.24C78.2289 6 78.2929 5.816 78.3249 5.688C78.3249 5.56 78.3569 5.464 78.4209 5.4C78.5009 5.336 78.5969 5.304 78.7089 5.304C78.9329 5.304 79.1089 5.416 79.2369 5.64C79.3809 5.848 79.4689 6.104 79.5009 6.408C79.5329 6.696 79.4849 6.968 79.3569 7.224C79.1009 7.8 78.8289 8.488 78.5409 9.288C78.2529 10.072 77.9729 10.848 77.7009 11.616C77.4289 12.368 77.1729 13.008 76.9329 13.536C76.9329 13.6 76.9089 13.712 76.8609 13.872C76.8129 14.032 76.7569 14.176 76.6929 14.304C76.6289 14.432 76.5649 14.552 76.5009 14.664C76.4529 14.776 76.4289 14.832 76.4289 14.832C76.4289 14.896 76.4049 15.016 76.3569 15.192C76.3089 15.368 76.2449 15.584 76.1649 15.84C76.1009 16.032 76.0209 16.28 75.9249 16.584C75.8449 16.888 75.7889 17.144 75.7569 17.352C75.8369 17.208 76.0049 16.992 76.2609 16.704C76.5169 16.416 76.7569 16.168 76.9809 15.96C77.2369 15.736 77.5249 15.488 77.8449 15.216C78.1649 14.944 78.4209 14.744 78.6129 14.616C78.8049 14.488 78.9729 14.376 79.1169 14.28C79.2769 14.168 79.3569 14.112 79.3569 14.112C79.3569 14.048 79.3809 14.016 79.4289 14.016C79.4929 14 79.5569 13.992 79.6209 13.992C79.6849 13.992 79.7169 13.984 79.7169 13.968C79.7329 13.952 79.7409 13.912 79.7409 13.848C79.7409 13.768 79.8289 13.696 80.0049 13.632C80.1969 13.568 80.4129 13.52 80.6529 13.488C80.9089 13.44 81.1169 13.416 81.2769 13.416C81.4689 13.416 81.6209 13.456 81.7329 13.536C81.8449 13.616 81.9889 13.792 82.1649 14.064C82.3569 14.32 82.4769 14.632 82.5249 15C82.5889 15.352 82.5569 15.72 82.4289 16.104C82.4289 16.232 82.4049 16.416 82.3569 16.656C82.3249 16.88 82.3089 17.12 82.3089 17.376L82.1649 18.144H82.5489C82.6769 18.144 82.7969 18.168 82.9089 18.216C83.0209 18.248 83.0769 18.264 83.0769 18.264C83.1409 18.328 83.2049 18.392 83.2689 18.456C83.3329 18.504 83.3969 18.528 83.4609 18.528C83.6529 18.528 83.7249 18.608 83.6769 18.768C83.6289 18.912 83.5089 19.048 83.3169 19.176C82.9329 19.432 82.5809 19.56 82.2609 19.56C81.9569 19.56 81.6769 19.432 81.4209 19.176C81.1649 18.904 81.0049 18.6 80.9409 18.264C80.8769 17.928 80.9089 17.504 81.0369 16.992C81.1009 16.288 81.1329 15.776 81.1329 15.456C81.1489 15.12 81.0689 14.952 80.8929 14.952C80.7329 14.952 80.4529 15.064 80.0529 15.288C79.6529 15.496 79.2049 15.784 78.7089 16.152C78.2129 16.52 77.7249 16.928 77.2449 17.376C76.7649 17.824 76.3649 18.288 76.0449 18.768C75.8529 19.008 75.6689 19.224 75.4929 19.416C75.3169 19.592 75.1409 19.688 74.9649 19.704ZM89.6978 20.16C89.3618 20.448 88.9698 20.616 88.5217 20.664C88.0897 20.712 87.6657 20.648 87.2497 20.472C86.8337 20.28 86.4897 19.992 86.2177 19.608C85.9457 19.256 85.7697 18.856 85.6897 18.408C85.6097 17.944 85.6017 17.344 85.6657 16.608C85.7137 15.984 85.9137 15.36 86.2657 14.736C86.6177 14.096 87.0417 13.528 87.5377 13.032C88.0497 12.536 88.5537 12.192 89.0497 12C89.2897 11.84 89.4897 11.768 89.6497 11.784C89.8258 11.784 90.0898 11.8 90.4417 11.832C90.8097 11.88 91.0817 11.952 91.2578 12.048C91.4497 12.144 91.6017 12.272 91.7137 12.432C91.9538 12.672 92.1138 12.912 92.1938 13.152C92.2738 13.376 92.3138 13.6 92.3138 13.824C92.2497 14.176 92.0097 14.608 91.5938 15.12C91.1937 15.616 90.6657 16.024 90.0097 16.344C89.6577 16.456 89.2737 16.504 88.8577 16.488C88.4417 16.472 88.0977 16.368 87.8257 16.176C87.5217 16.048 87.3217 16.072 87.2257 16.248C87.1297 16.408 87.0417 16.808 86.9617 17.448C86.8977 18.056 86.9457 18.504 87.1057 18.792C87.2657 19.064 87.4817 19.224 87.7537 19.272C88.0737 19.336 88.3217 19.384 88.4977 19.416C88.6897 19.432 88.9217 19.36 89.1938 19.2C89.4498 19.04 89.6098 18.952 89.6737 18.936C89.7377 18.904 89.7857 18.872 89.8177 18.84C89.8657 18.792 89.9697 18.688 90.1297 18.528C90.2418 18.416 90.3298 18.336 90.3937 18.288C90.4577 18.224 90.5297 18.192 90.6097 18.192C90.6897 18.192 90.7617 18.232 90.8257 18.312C90.8898 18.376 90.9538 18.424 91.0178 18.456C91.1778 18.456 91.2097 18.552 91.1137 18.744C91.0337 18.936 90.8657 19.168 90.6097 19.44C90.3537 19.696 90.0497 19.936 89.6978 20.16ZM89.6737 15.072C89.8497 14.992 90.0337 14.88 90.2257 14.736C90.4177 14.576 90.5777 14.408 90.7057 14.232C90.8498 14.04 90.9218 13.88 90.9218 13.752C90.9218 13.528 90.8177 13.344 90.6097 13.2C90.4018 13.04 90.0898 13.016 89.6737 13.128C89.4977 13.176 89.2977 13.296 89.0737 13.488C88.8497 13.664 88.6337 13.864 88.4257 14.088C88.2337 14.312 88.0737 14.512 87.9457 14.688C87.8337 14.864 87.7937 14.968 87.8257 15C87.8737 15.08 88.0097 15.144 88.2337 15.192C88.4577 15.224 88.7057 15.232 88.9777 15.216C89.2657 15.2 89.4977 15.152 89.6737 15.072ZM100.771 21.6C100.691 21.6 100.595 21.56 100.483 21.48C100.371 21.416 100.267 21.328 100.171 21.216C100.091 21.104 100.051 20.984 100.051 20.856C100.051 20.856 100.043 20.808 100.027 20.712C100.027 20.6 99.9949 20.488 99.9309 20.376C99.9309 20.248 99.9309 20.104 99.9309 19.944C99.9469 19.768 99.9869 19.592 100.051 19.416C100.051 19.24 100.075 19.048 100.123 18.84C100.171 18.616 100.227 18.448 100.291 18.336C100.291 18.16 100.331 17.936 100.411 17.664C100.507 17.376 100.587 17.112 100.651 16.872C100.827 16.344 100.955 15.96 101.035 15.72C101.131 15.48 101.195 15.304 101.227 15.192C101.259 15.064 101.275 14.936 101.275 14.808C101.323 14.68 101.395 14.448 101.491 14.112C101.587 13.776 101.683 13.432 101.779 13.08C101.891 12.712 101.963 12.448 101.995 12.288C102.059 12.224 102.091 12.168 102.091 12.12C102.107 12.056 102.115 11.992 102.115 11.928C102.115 11.928 102.171 11.744 102.283 11.376C102.395 11.008 102.539 10.584 102.715 10.104C103.003 9.256 103.195 8.64 103.291 8.256C103.403 7.872 103.451 7.6 103.435 7.44C103.435 7.28 103.395 7.12 103.315 6.96C103.203 6.752 103.203 6.592 103.315 6.48C103.379 6.416 103.435 6.344 103.483 6.264C103.531 6.168 103.555 6.12 103.555 6.12C103.555 6.088 103.659 6.032 103.867 5.952C104.075 5.872 104.331 5.784 104.635 5.688C104.939 5.576 105.243 5.472 105.547 5.376C105.867 5.28 106.131 5.2 106.339 5.136C106.387 5.136 106.459 5.136 106.555 5.136C106.667 5.136 106.787 5.136 106.915 5.136C107.059 5.136 107.195 5.136 107.323 5.136C107.739 5.2 108.163 5.32 108.595 5.496C109.043 5.672 109.419 5.92 109.723 6.24C109.915 6.416 110.083 6.624 110.227 6.864C110.387 7.104 110.587 7.496 110.827 8.04C110.827 8.104 110.843 8.24 110.875 8.448C110.923 8.64 110.947 8.832 110.947 9.024C110.947 9.504 110.827 10.008 110.587 10.536C110.347 11.064 110.003 11.6 109.555 12.144C109.107 12.672 108.563 13.2 107.923 13.728C107.251 14.272 106.555 14.64 105.835 14.832C105.115 15.024 104.475 15.064 103.915 14.952C103.803 14.904 103.699 14.808 103.603 14.664C103.523 14.52 103.467 14.376 103.435 14.232C103.403 14.088 103.411 13.992 103.459 13.944C103.587 13.912 103.779 13.904 104.035 13.92C104.291 13.92 104.699 13.816 105.259 13.608C105.435 13.544 105.619 13.472 105.811 13.392C106.003 13.296 106.155 13.216 106.267 13.152C106.587 12.944 106.955 12.664 107.371 12.312C107.787 11.96 108.171 11.504 108.523 10.944C108.667 10.72 108.811 10.456 108.955 10.152C109.099 9.832 109.219 9.512 109.315 9.192C109.427 8.872 109.483 8.608 109.483 8.4C109.611 7.984 109.531 7.64 109.243 7.368C108.971 7.08 108.531 6.904 107.923 6.84C107.731 6.792 107.435 6.808 107.035 6.888C106.635 6.952 106.251 7.04 105.883 7.152C105.515 7.264 105.267 7.36 105.139 7.44C105.075 7.44 105.035 7.488 105.019 7.584C105.003 7.68 104.963 7.792 104.899 7.92C104.899 8.032 104.851 8.272 104.755 8.64C104.659 8.992 104.547 9.32 104.419 9.624C104.307 9.976 104.171 10.368 104.011 10.8C103.851 11.216 103.739 11.544 103.675 11.784C103.611 12.04 103.531 12.288 103.435 12.528C103.355 12.768 103.315 12.888 103.315 12.888C103.315 12.952 103.267 13.088 103.171 13.296C103.091 13.504 103.019 13.728 102.955 13.968C102.891 14.272 102.803 14.616 102.691 15C102.595 15.384 102.483 15.728 102.355 16.032C102.179 16.624 102.027 17.216 101.899 17.808C101.771 18.384 101.763 18.76 101.875 18.936C102.051 18.936 102.115 19.08 102.067 19.368C102.019 19.64 101.875 20.016 101.635 20.496C101.475 20.896 101.355 21.168 101.275 21.312C101.195 21.472 101.123 21.56 101.059 21.576C100.995 21.592 100.899 21.6 100.771 21.6ZM111.515 19.872C111.355 19.776 111.235 19.68 111.155 19.584C111.075 19.488 111.035 19.352 111.035 19.176C111.035 18.936 111.067 18.688 111.131 18.432C111.195 18.16 111.259 17.896 111.323 17.64C111.355 17.352 111.395 17.064 111.443 16.776C111.507 16.472 111.619 16.192 111.779 15.936C111.955 15.328 112.139 14.728 112.331 14.136C112.523 13.528 112.691 12.904 112.835 12.264C113.043 11.672 113.227 11.152 113.387 10.704C113.563 10.24 113.779 9.656 114.035 8.952C114.179 8.552 114.299 8.128 114.395 7.68C114.507 7.216 114.675 6.8 114.899 6.432C114.995 6.288 115.067 6.168 115.115 6.072C115.179 5.96 115.243 5.856 115.307 5.76C115.323 5.696 115.371 5.656 115.451 5.64C115.547 5.624 115.651 5.632 115.763 5.664C115.875 5.696 115.963 5.752 116.027 5.832C116.075 5.816 116.131 5.864 116.195 5.976C116.275 6.072 116.347 6.184 116.411 6.312C116.475 6.44 116.499 6.552 116.483 6.648C116.483 6.712 116.467 6.8 116.435 6.912C116.419 7.024 116.379 7.128 116.315 7.224C116.251 7.288 116.187 7.384 116.123 7.512C116.075 7.624 115.995 7.784 115.883 7.992C115.819 8.2 115.763 8.416 115.715 8.64C115.667 8.848 115.603 9.04 115.523 9.216C115.459 9.408 115.379 9.592 115.283 9.768C115.203 9.944 115.147 10.088 115.115 10.2C115.003 10.568 114.867 10.928 114.707 11.28C114.563 11.632 114.435 12.008 114.323 12.408C114.211 12.792 114.099 13.192 113.987 13.608C113.875 14.008 113.715 14.392 113.507 14.76C113.395 14.936 113.315 15.16 113.267 15.432C113.219 15.704 113.171 15.976 113.123 16.248C113.027 16.536 112.939 16.808 112.859 17.064C112.795 17.304 112.763 17.456 112.763 17.52C112.667 17.872 112.595 18.224 112.547 18.576C112.515 18.912 112.435 19.208 112.307 19.464C112.291 19.624 112.259 19.752 112.211 19.848C112.163 19.944 112.083 20 111.971 20.016C111.859 20.016 111.707 19.968 111.515 19.872ZM116.626 20.256C116.386 20.224 116.178 20.056 116.002 19.752C115.842 19.432 115.746 19.144 115.714 18.888C115.73 18.76 115.746 18.576 115.762 18.336C115.794 18.096 115.826 17.848 115.858 17.592C115.922 17.288 116.01 16.92 116.122 16.488C116.234 16.04 116.346 15.592 116.458 15.144C116.586 14.696 116.698 14.312 116.794 13.992C116.89 13.672 116.954 13.48 116.986 13.416C117.066 13.288 117.194 13.256 117.37 13.32C117.546 13.384 117.69 13.48 117.802 13.608C117.898 13.736 117.954 13.888 117.97 14.064C118.002 14.24 117.978 14.496 117.898 14.832C117.834 15.168 117.706 15.664 117.514 16.32C117.338 16.96 117.202 17.48 117.106 17.88C117.026 18.264 116.994 18.672 117.01 19.104C116.946 19.648 116.898 19.984 116.866 20.112C116.834 20.224 116.754 20.272 116.626 20.256ZM119.386 10.68C119.322 10.728 119.258 10.752 119.194 10.752C119.146 10.736 119.058 10.688 118.93 10.608C118.818 10.592 118.674 10.52 118.498 10.392C118.338 10.248 118.194 10.104 118.066 9.96C117.954 9.8 117.898 9.704 117.898 9.672C117.882 9.512 117.89 9.312 117.922 9.072C117.97 8.816 118.058 8.592 118.186 8.4C118.314 8.192 118.498 8.08 118.738 8.064C118.802 8.064 118.858 8.072 118.906 8.088C118.954 8.104 119.098 8.16 119.338 8.256C119.466 8.496 119.594 8.768 119.722 9.072C119.85 9.36 119.906 9.648 119.89 9.936C119.874 10.208 119.706 10.456 119.386 10.68ZM121.295 19.944C121.231 19.944 121.135 19.904 121.007 19.824C120.895 19.728 120.807 19.648 120.743 19.584C120.631 19.456 120.559 19.328 120.527 19.2C120.511 19.072 120.503 18.784 120.503 18.336C120.503 17.824 120.607 17.272 120.815 16.68C121.023 16.072 121.375 15.224 121.871 14.136L122.663 12.456C122.727 12.328 122.783 12.232 122.831 12.168C122.895 12.104 122.951 12.04 122.999 11.976C123.063 11.976 123.119 11.976 123.167 11.976C123.215 11.976 123.239 11.976 123.239 11.976C123.367 11.976 123.495 12.056 123.623 12.216C123.751 12.36 123.847 12.52 123.911 12.696C123.911 12.904 123.879 13.12 123.815 13.344C123.767 13.568 123.575 13.904 123.239 14.352C123.127 14.528 122.975 14.824 122.783 15.24C122.607 15.656 122.487 16.016 122.423 16.32C122.407 16.336 122.375 16.408 122.327 16.536C122.279 16.648 122.223 16.776 122.159 16.92C122.111 17.064 122.055 17.2 121.991 17.328L121.871 17.856L123.479 16.2C124.231 15.448 124.839 14.912 125.303 14.592C125.767 14.272 126.135 14.136 126.407 14.184C126.679 14.232 126.911 14.448 127.103 14.832C127.215 15.008 127.295 15.168 127.343 15.312C127.407 15.44 127.447 15.616 127.463 15.84C127.479 16.064 127.463 16.4 127.415 16.848V18.336C127.655 18.272 127.847 18.216 127.991 18.168C128.135 18.104 128.287 18.04 128.447 17.976C128.591 17.912 128.759 17.856 128.951 17.808C129.143 17.744 129.383 17.704 129.671 17.688C129.655 17.896 129.583 18.12 129.455 18.36C129.327 18.584 129.167 18.8 128.975 19.008C128.783 19.216 128.567 19.384 128.327 19.512C128.103 19.64 127.879 19.704 127.655 19.704C127.447 19.704 127.215 19.6 126.959 19.392C126.703 19.184 126.519 18.952 126.407 18.696C126.343 18.52 126.303 18.328 126.287 18.12C126.287 17.912 126.287 17.528 126.287 16.968V16.08C126.287 15.824 126.207 15.752 126.047 15.864C125.903 15.96 125.783 16.048 125.687 16.128C125.447 16.336 125.191 16.576 124.919 16.848C124.663 17.12 124.399 17.4 124.127 17.688C123.391 18.456 122.775 19.024 122.279 19.392C121.799 19.76 121.471 19.944 121.295 19.944ZM131.475 20.88C131.347 20.832 131.211 20.736 131.067 20.592C130.923 20.432 130.803 20.248 130.707 20.04C130.611 19.832 130.563 19.64 130.563 19.464C130.643 19.288 130.747 18.984 130.875 18.552C131.003 18.104 131.163 17.592 131.355 17.016C131.483 16.84 131.579 16.632 131.643 16.392C131.723 16.152 131.795 15.936 131.859 15.744C131.987 15.488 132.139 15.16 132.315 14.76C132.491 14.344 132.659 13.928 132.819 13.512C132.995 13.08 133.147 12.72 133.275 12.432C133.483 12 133.659 11.608 133.803 11.256C133.963 10.888 134.115 10.52 134.259 10.152C134.419 9.784 134.587 9.384 134.763 8.952C134.955 8.504 135.147 8.048 135.339 7.584C135.547 7.12 135.723 6.704 135.867 6.336C136.027 5.952 136.123 5.68 136.155 5.52C136.155 5.392 136.179 5.296 136.227 5.232C136.291 5.168 136.355 5.136 136.419 5.136C136.483 5.072 136.547 5.04 136.611 5.04C136.675 5.024 136.739 5.016 136.803 5.016C136.867 5.016 136.987 5.136 137.163 5.376C137.355 5.616 137.451 5.832 137.451 6.024C137.451 6.28 137.323 6.76 137.067 7.464C136.827 8.168 136.483 8.968 136.035 9.864C135.491 11.048 135.051 12.024 134.715 12.792C134.379 13.544 134.147 14.112 134.019 14.496C133.891 14.864 133.843 15.072 133.875 15.12C133.875 15.12 133.987 15.072 134.211 14.976C134.435 14.864 134.675 14.712 134.931 14.52C135.107 14.424 135.299 14.304 135.507 14.16C135.715 14.016 135.915 13.88 136.107 13.752C136.299 13.608 136.459 13.52 136.587 13.488C136.779 13.36 136.979 13.24 137.187 13.128C137.395 13 137.531 12.904 137.595 12.84C137.867 12.712 138.067 12.672 138.195 12.72C138.339 12.768 138.483 12.888 138.627 13.08C138.803 13.288 138.835 13.472 138.723 13.632C138.611 13.776 138.347 13.976 137.931 14.232C137.595 14.44 137.187 14.688 136.707 14.976C136.243 15.264 135.827 15.52 135.459 15.744C135.107 15.968 134.907 16.104 134.859 16.152C134.859 16.152 134.923 16.272 135.051 16.512C135.179 16.752 135.307 16.968 135.435 17.16C135.563 17.416 135.699 17.656 135.843 17.88C136.003 18.088 136.083 18.232 136.083 18.312C136.259 18.808 136.523 19.168 136.875 19.392C137.227 19.616 137.595 19.64 137.979 19.464C138.299 19.336 138.531 19.296 138.675 19.344C138.835 19.392 138.947 19.512 139.011 19.704C139.075 19.832 139.091 19.928 139.059 19.992C139.043 20.04 138.939 20.16 138.747 20.352C138.443 20.656 138.131 20.848 137.811 20.928C137.507 21.008 137.227 20.984 136.971 20.856C136.731 20.872 136.435 20.72 136.083 20.4C135.731 20.064 135.227 19.472 134.571 18.624C134.571 18.56 134.539 18.472 134.475 18.36C134.427 18.232 134.371 18.112 134.307 18C134.243 17.872 134.163 17.736 134.067 17.592C133.971 17.432 133.923 17.352 133.923 17.352C133.923 17.288 133.899 17.216 133.851 17.136C133.803 17.056 133.739 16.96 133.659 16.848C133.403 16.768 133.219 16.816 133.107 16.992C132.995 17.168 132.875 17.352 132.747 17.544C132.667 17.752 132.563 18.048 132.435 18.432C132.323 18.8 132.227 19.16 132.147 19.512C132.083 19.864 132.067 20.104 132.099 20.232C132.099 20.488 132.059 20.664 131.979 20.76C131.899 20.84 131.731 20.88 131.475 20.88ZM142.617 20.856C142.409 20.872 142.241 20.856 142.113 20.808C141.985 20.744 141.825 20.656 141.633 20.544C141.281 20.272 141.017 20 140.841 19.728C140.681 19.44 140.609 19.16 140.625 18.888C140.657 18.744 140.657 18.616 140.625 18.504C140.609 18.392 140.601 18.336 140.601 18.336C140.505 18.256 140.473 18.208 140.505 18.192C140.537 18.16 140.561 18.112 140.577 18.048C140.705 18.016 140.721 17.928 140.625 17.784C140.577 17.656 140.601 17.368 140.697 16.92C140.809 16.456 140.953 16.024 141.129 15.624C141.209 15.448 141.321 15.216 141.465 14.928C141.625 14.64 141.801 14.352 141.993 14.064C142.185 13.76 142.361 13.52 142.521 13.344C142.873 12.944 143.185 12.648 143.457 12.456C143.745 12.248 144.065 12.08 144.417 11.952C144.737 11.824 144.969 11.752 145.113 11.736C145.257 11.72 145.457 11.816 145.713 12.024C146.097 12.136 146.385 12.296 146.577 12.504C146.785 12.696 146.945 13 147.057 13.416C147.185 13.88 147.225 14.432 147.177 15.072C147.145 15.696 146.873 16.504 146.361 17.496C146.057 18.12 145.753 18.592 145.449 18.912C145.161 19.232 144.809 19.568 144.393 19.92C144.089 20.176 143.809 20.376 143.553 20.52C143.297 20.664 142.985 20.776 142.617 20.856ZM144.537 18C144.857 17.52 145.105 17.08 145.281 16.68C145.473 16.264 145.625 15.744 145.737 15.12C145.769 14.944 145.777 14.728 145.761 14.472C145.745 14.2 145.705 13.952 145.641 13.728C145.593 13.504 145.521 13.384 145.425 13.368C145.217 13.288 144.985 13.288 144.729 13.368C144.473 13.432 144.193 13.624 143.889 13.944C143.617 14.264 143.369 14.624 143.145 15.024C142.937 15.424 142.745 15.864 142.569 16.344C142.393 16.824 142.225 17.336 142.065 17.88C141.905 18.488 141.913 18.952 142.089 19.272C142.281 19.592 142.593 19.672 143.025 19.512C143.457 19.336 143.961 18.832 144.537 18ZM65.136 52.344C64.896 52.248 64.648 52.144 64.392 52.032C64.152 51.92 63.92 51.752 63.696 51.528C63.488 51.32 63.304 51.024 63.144 50.64C62.984 50.176 62.872 49.72 62.808 49.272C62.76 48.824 62.744 48.304 62.76 47.712C62.76 46.88 62.816 46.16 62.928 45.552C63.056 44.928 63.248 44.296 63.504 43.656C63.536 43.608 63.592 43.472 63.672 43.248C63.768 43.008 63.872 42.752 63.984 42.48C64.112 42.208 64.208 42 64.272 41.856C64.4 41.584 64.592 41.224 64.848 40.776C65.12 40.312 65.408 39.864 65.712 39.432C66.176 38.744 66.56 38.2 66.864 37.8C67.168 37.4 67.456 37.064 67.728 36.792C68 36.52 68.304 36.264 68.64 36.024C68.992 35.768 69.44 35.456 69.984 35.088C70.336 34.832 70.72 34.696 71.136 34.68C71.568 34.664 71.968 34.76 72.336 34.968C72.704 35.16 72.976 35.448 73.152 35.832C73.328 36.168 73.416 36.576 73.416 37.056C73.416 37.52 73.344 38.016 73.2 38.544C73.056 39.056 72.856 39.544 72.6 40.008C72.344 40.472 72.048 40.856 71.712 41.16C71.504 41.352 71.312 41.424 71.136 41.376C70.976 41.328 70.784 41.2 70.56 40.992C70.416 40.72 70.336 40.56 70.32 40.512C70.32 40.464 70.352 40.432 70.416 40.416C70.512 40.304 70.64 40.112 70.8 39.84C70.96 39.568 71.12 39.28 71.28 38.976C71.44 38.656 71.552 38.4 71.616 38.208C71.744 37.536 71.832 37.064 71.88 36.792C71.928 36.504 71.88 36.288 71.736 36.144C71.672 36.08 71.576 36.056 71.448 36.072C71.336 36.088 71.144 36.168 70.872 36.312C70.504 36.472 70.024 36.832 69.432 37.392C68.84 37.936 68.296 38.544 67.8 39.216C67.16 40.064 66.624 40.816 66.192 41.472C65.76 42.128 65.432 42.8 65.208 43.488C65.176 43.552 65.12 43.672 65.04 43.848C64.976 44.024 64.944 44.112 64.944 44.112C64.96 44.176 64.936 44.336 64.872 44.592C64.808 44.832 64.736 45.04 64.656 45.216C64.48 45.952 64.376 46.72 64.344 47.52C64.312 48.304 64.352 49 64.464 49.608C64.592 50.216 64.776 50.64 65.016 50.88C65.224 51.024 65.504 51.072 65.856 51.024C66.224 50.976 66.64 50.864 67.104 50.688C67.568 50.512 68.04 50.32 68.52 50.112C68.904 49.952 69.256 49.776 69.576 49.584C69.896 49.392 70.136 49.224 70.296 49.08C70.424 48.984 70.584 48.888 70.776 48.792C70.984 48.68 71.16 48.624 71.304 48.624C71.528 48.544 71.656 48.512 71.688 48.528C71.72 48.544 71.736 48.616 71.736 48.744C71.736 48.968 71.608 49.216 71.352 49.488C71.112 49.76 70.8 50.008 70.416 50.232C70.288 50.36 70.12 50.496 69.912 50.64C69.704 50.784 69.488 50.896 69.264 50.976C68.928 51.232 68.512 51.48 68.016 51.72C67.52 51.96 67.016 52.144 66.504 52.272C66.008 52.4 65.552 52.424 65.136 52.344ZM74.8243 49.704C74.7123 49.72 74.5923 49.72 74.4643 49.704C74.3523 49.672 74.2403 49.616 74.1283 49.536C74.0003 49.408 73.9123 49.312 73.8643 49.248C73.8163 49.168 73.8003 49.048 73.8163 48.888C73.8483 48.728 73.9043 48.48 73.9843 48.144C74.0643 47.888 74.1603 47.536 74.2723 47.088C74.3843 46.624 74.5043 46.168 74.6323 45.72C74.6803 45.464 74.7443 45.2 74.8243 44.928C74.9203 44.656 75.0163 44.408 75.1123 44.184C75.2083 43.944 75.2803 43.76 75.3283 43.632C75.4563 43.184 75.5763 42.792 75.6883 42.456C75.8163 42.12 75.9683 41.736 76.1443 41.304C76.3203 40.856 76.5363 40.264 76.7923 39.528C77.1443 38.568 77.4083 37.84 77.5843 37.344C77.7763 36.832 77.9123 36.464 77.9923 36.24C78.0883 36 78.1523 35.816 78.1843 35.688C78.1843 35.56 78.2163 35.464 78.2803 35.4C78.3603 35.336 78.4563 35.304 78.5683 35.304C78.7923 35.304 78.9683 35.416 79.0963 35.64C79.2403 35.848 79.3283 36.104 79.3603 36.408C79.3923 36.696 79.3443 36.968 79.2163 37.224C78.9603 37.8 78.6883 38.488 78.4003 39.288C78.1123 40.072 77.8323 40.848 77.5603 41.616C77.2883 42.368 77.0323 43.008 76.7923 43.536C76.7923 43.6 76.7683 43.712 76.7203 43.872C76.6723 44.032 76.6163 44.176 76.5523 44.304C76.4883 44.432 76.4243 44.552 76.3603 44.664C76.3123 44.776 76.2883 44.832 76.2883 44.832C76.2883 44.896 76.2643 45.016 76.2163 45.192C76.1683 45.368 76.1043 45.584 76.0243 45.84C75.9603 46.032 75.8803 46.28 75.7843 46.584C75.7043 46.888 75.6483 47.144 75.6163 47.352C75.6963 47.208 75.8643 46.992 76.1203 46.704C76.3763 46.416 76.6163 46.168 76.8403 45.96C77.0963 45.736 77.3843 45.488 77.7043 45.216C78.0243 44.944 78.2803 44.744 78.4723 44.616C78.6643 44.488 78.8323 44.376 78.9763 44.28C79.1363 44.168 79.2163 44.112 79.2163 44.112C79.2163 44.048 79.2403 44.016 79.2883 44.016C79.3523 44 79.4163 43.992 79.4803 43.992C79.5443 43.992 79.5763 43.984 79.5763 43.968C79.5923 43.952 79.6003 43.912 79.6003 43.848C79.6003 43.768 79.6883 43.696 79.8643 43.632C80.0563 43.568 80.2723 43.52 80.5123 43.488C80.7683 43.44 80.9763 43.416 81.1363 43.416C81.3283 43.416 81.4803 43.456 81.5923 43.536C81.7043 43.616 81.8483 43.792 82.0243 44.064C82.2163 44.32 82.3363 44.632 82.3843 45C82.4483 45.352 82.4163 45.72 82.2883 46.104C82.2883 46.232 82.2643 46.416 82.2163 46.656C82.1843 46.88 82.1683 47.12 82.1683 47.376L82.0243 48.144H82.4083C82.5363 48.144 82.6563 48.168 82.7683 48.216C82.8803 48.248 82.9363 48.264 82.9363 48.264C83.0003 48.328 83.0643 48.392 83.1283 48.456C83.1923 48.504 83.2563 48.528 83.3203 48.528C83.5123 48.528 83.5843 48.608 83.5363 48.768C83.4883 48.912 83.3683 49.048 83.1763 49.176C82.7923 49.432 82.4403 49.56 82.1203 49.56C81.8163 49.56 81.5363 49.432 81.2803 49.176C81.0243 48.904 80.8643 48.6 80.8003 48.264C80.7363 47.928 80.7683 47.504 80.8963 46.992C80.9603 46.288 80.9923 45.776 80.9923 45.456C81.0083 45.12 80.9283 44.952 80.7523 44.952C80.5923 44.952 80.3123 45.064 79.9123 45.288C79.5123 45.496 79.0643 45.784 78.5683 46.152C78.0723 46.52 77.5843 46.928 77.1043 47.376C76.6243 47.824 76.2243 48.288 75.9043 48.768C75.7123 49.008 75.5283 49.224 75.3523 49.416C75.1763 49.592 75.0003 49.688 74.8243 49.704ZM85.5011 50.136C85.4371 50.008 85.3571 49.912 85.2611 49.848C85.1651 49.768 85.1171 49.696 85.1171 49.632C85.1171 49.568 85.1091 49.504 85.0931 49.44C85.0931 49.36 85.0611 49.288 84.9971 49.224C84.9171 49.128 84.9251 48.912 85.0211 48.576C85.1171 48.224 85.2771 47.8 85.5011 47.304C85.7251 46.792 85.9891 46.256 86.2931 45.696C86.4211 45.568 86.5491 45.4 86.6771 45.192C86.8051 44.984 86.9011 44.848 86.9651 44.784C86.9651 44.72 86.9891 44.664 87.0371 44.616C87.0851 44.552 87.1411 44.52 87.2051 44.52V44.376C87.2051 44.296 87.2771 44.16 87.4211 43.968C87.5811 43.776 87.7731 43.568 87.9971 43.344C88.2211 43.104 88.4531 42.88 88.6931 42.672C88.9331 42.448 89.1331 42.288 89.2931 42.192C89.6291 41.968 89.9731 41.832 90.3251 41.784C90.6931 41.736 91.0051 41.816 91.2611 42.024C91.3091 42.072 91.3891 42.152 91.5011 42.264C91.6131 42.376 91.7411 42.504 91.8851 42.648C92.0451 42.776 92.2051 42.912 92.3651 43.056L93.2531 43.848L92.8211 45.048C92.6131 45.688 92.5571 46.248 92.6531 46.728C92.7651 47.208 92.9251 47.624 93.1331 47.976C93.2131 48.152 93.3731 48.32 93.6131 48.48C93.8691 48.64 94.1091 48.736 94.3331 48.768C94.4611 48.784 94.5811 48.832 94.6931 48.912C94.8051 48.992 94.8611 49.12 94.8611 49.296C94.8611 49.456 94.8291 49.584 94.7651 49.68C94.7011 49.776 94.5891 49.84 94.4291 49.872C93.9011 49.936 93.4051 49.808 92.9411 49.488C92.4931 49.168 92.0771 48.64 91.6931 47.904C91.6291 47.808 91.5411 47.632 91.4291 47.376C91.3331 47.104 91.2771 46.928 91.2611 46.848C91.1971 46.928 91.0771 47.08 90.9011 47.304C90.7251 47.512 90.5891 47.664 90.4931 47.76C89.3571 48.912 88.3731 49.688 87.5411 50.088C86.7251 50.472 86.0451 50.488 85.5011 50.136ZM86.3651 48.792C86.3651 48.904 86.5331 48.904 86.8691 48.792C87.2211 48.664 87.5971 48.44 87.9971 48.12C88.5411 47.656 89.0851 47.144 89.6291 46.584C90.1891 46.024 90.6371 45.504 90.9731 45.024L91.5011 44.16C91.3411 43.792 91.1651 43.544 90.9731 43.416C90.7971 43.272 90.6451 43.2 90.5171 43.2C90.3091 43.2 89.9971 43.392 89.5811 43.776C89.1811 44.16 88.7491 44.672 88.2851 45.312C87.8211 45.952 87.3811 46.656 86.9651 47.424C86.8051 47.744 86.6611 48.056 86.5331 48.36C86.4211 48.648 86.3651 48.792 86.3651 48.792ZM96.4337 49.872C96.2737 49.776 96.1537 49.68 96.0737 49.584C95.9937 49.488 95.9537 49.352 95.9537 49.176C95.9537 48.936 95.9857 48.688 96.0497 48.432C96.1137 48.16 96.1777 47.896 96.2417 47.64C96.2737 47.352 96.3137 47.064 96.3617 46.776C96.4257 46.472 96.5377 46.192 96.6977 45.936C96.8737 45.328 97.0577 44.728 97.2497 44.136C97.4417 43.528 97.6097 42.904 97.7537 42.264C97.9617 41.672 98.1457 41.152 98.3057 40.704C98.4817 40.24 98.6977 39.656 98.9537 38.952C99.0977 38.552 99.2177 38.128 99.3137 37.68C99.4257 37.216 99.5937 36.8 99.8177 36.432C99.9137 36.288 99.9857 36.168 100.034 36.072C100.098 35.96 100.162 35.856 100.226 35.76C100.242 35.696 100.29 35.656 100.37 35.64C100.466 35.624 100.57 35.632 100.682 35.664C100.794 35.696 100.882 35.752 100.946 35.832C100.994 35.816 101.05 35.864 101.114 35.976C101.194 36.072 101.266 36.184 101.33 36.312C101.394 36.44 101.418 36.552 101.402 36.648C101.402 36.712 101.386 36.8 101.354 36.912C101.338 37.024 101.298 37.128 101.234 37.224C101.17 37.288 101.106 37.384 101.042 37.512C100.994 37.624 100.914 37.784 100.802 37.992C100.738 38.2 100.682 38.416 100.634 38.64C100.586 38.848 100.522 39.04 100.442 39.216C100.378 39.408 100.298 39.592 100.202 39.768C100.122 39.944 100.066 40.088 100.034 40.2C99.9217 40.568 99.7857 40.928 99.6257 41.28C99.4817 41.632 99.3537 42.008 99.2417 42.408C99.1297 42.792 99.0177 43.192 98.9057 43.608C98.7937 44.008 98.6337 44.392 98.4257 44.76C98.3137 44.936 98.2337 45.16 98.1857 45.432C98.1377 45.704 98.0897 45.976 98.0417 46.248C97.9457 46.536 97.8577 46.808 97.7777 47.064C97.7137 47.304 97.6817 47.456 97.6817 47.52C97.5857 47.872 97.5137 48.224 97.4657 48.576C97.4337 48.912 97.3537 49.208 97.2257 49.464C97.2097 49.624 97.1777 49.752 97.1297 49.848C97.0817 49.944 97.0017 50 96.8897 50.016C96.7777 50.016 96.6257 49.968 96.4337 49.872ZM100.368 51.216C100.16 51.136 100.008 51.016 99.9124 50.856C99.8164 50.68 99.7604 50.432 99.7444 50.112C99.7444 49.92 99.7764 49.664 99.8404 49.344C99.9044 49.024 99.9764 48.656 100.056 48.24C100.056 48.208 100.056 48.176 100.056 48.144C100.072 48.096 100.08 48.064 100.08 48.048C100.096 47.984 100.112 47.888 100.128 47.76C100.16 47.632 100.184 47.536 100.2 47.472C100.216 47.392 100.224 47.392 100.224 47.472L100.392 46.824C100.472 46.536 100.552 46.248 100.632 45.96C100.712 45.672 100.784 45.424 100.848 45.216C100.912 44.992 100.952 44.864 100.968 44.832C100.968 44.832 101 44.744 101.064 44.568C101.128 44.376 101.192 44.192 101.256 44.016C101.528 43.264 101.776 42.632 102 42.12C102.224 41.592 102.424 41.208 102.6 40.968C102.616 40.92 102.64 40.864 102.672 40.8C102.704 40.72 102.728 40.656 102.744 40.608C102.76 40.48 102.776 40.384 102.792 40.32C102.824 40.24 102.864 40.168 102.912 40.104C102.944 40.04 102.992 39.96 103.056 39.864C103.12 39.752 103.192 39.616 103.272 39.456L103.368 39.192C103.464 38.984 103.584 38.752 103.728 38.496C103.872 38.24 103.976 38.056 104.04 37.944C104.104 37.8 104.2 37.632 104.328 37.44C104.456 37.232 104.552 37.096 104.616 37.032L104.592 37.008C104.672 36.864 104.768 36.784 104.88 36.768C105.008 36.736 105.144 36.72 105.288 36.72C105.512 36.72 105.64 36.752 105.672 36.816C105.704 36.88 105.72 37.024 105.72 37.248C105.72 37.488 105.712 37.664 105.696 37.776C105.696 37.872 105.632 37.984 105.504 38.112H105.528C105.56 38.08 105.552 38.12 105.504 38.232C105.456 38.328 105.416 38.4 105.384 38.448C105.352 38.528 105.312 38.616 105.264 38.712C105.232 38.808 105.192 38.88 105.144 38.928C105.096 38.992 104.976 39.208 104.784 39.576C104.608 39.928 104.4 40.344 104.16 40.824C103.936 41.304 103.72 41.768 103.512 42.216C103.304 42.664 103.152 43.008 103.056 43.248L102.936 43.608C102.904 43.672 102.888 43.72 102.888 43.752C102.84 43.864 102.792 43.976 102.744 44.088C102.696 44.2 102.648 44.296 102.6 44.376L102.192 45.768L102.072 46.272L101.856 46.8L101.712 47.256C101.68 47.352 101.656 47.44 101.64 47.52C101.624 47.6 101.592 47.664 101.544 47.712C101.544 47.728 101.536 47.752 101.52 47.784C101.52 47.8 101.52 47.816 101.52 47.832C101.456 48.088 101.384 48.448 101.304 48.912C101.224 49.376 101.168 49.864 101.136 50.376C101.136 50.392 101.128 50.408 101.112 50.424C101.112 50.44 101.112 50.456 101.112 50.472C101.064 50.808 100.984 51.032 100.872 51.144C100.76 51.256 100.592 51.28 100.368 51.216ZM106.943 51.072C106.239 51.072 105.663 50.808 105.215 50.28C104.767 49.736 104.551 49.064 104.567 48.264C104.599 47.688 104.711 47.072 104.903 46.416C105.111 45.744 105.383 45.104 105.719 44.496C106.055 43.872 106.423 43.328 106.823 42.864C107.223 42.4 107.639 42.072 108.071 41.88C108.231 41.8 108.399 41.736 108.575 41.688C108.767 41.64 108.959 41.616 109.151 41.616C109.327 41.616 109.511 41.648 109.703 41.712C109.895 41.76 110.055 41.816 110.183 41.88C110.455 41.992 110.663 42.128 110.807 42.288C110.951 42.448 111.079 42.696 111.191 43.032C111.239 43.336 111.263 43.552 111.263 43.68C111.263 43.808 111.223 44 111.143 44.256C110.951 44.832 110.703 45.328 110.399 45.744C110.095 46.16 109.687 46.512 109.175 46.8C109.047 46.88 108.895 46.944 108.719 46.992C108.559 47.024 108.391 47.04 108.215 47.04C107.895 47.04 107.583 46.984 107.279 46.872C106.991 46.744 106.759 46.56 106.583 46.32L106.415 46.128L106.343 46.32C106.183 46.752 106.055 47.152 105.959 47.52C105.879 47.888 105.839 48.224 105.839 48.528C105.839 48.72 105.855 48.904 105.887 49.08C105.935 49.256 105.999 49.408 106.079 49.536C106.143 49.632 106.247 49.704 106.391 49.752C106.551 49.784 106.719 49.8 106.895 49.8C107.007 49.8 107.119 49.8 107.231 49.8C107.359 49.784 107.479 49.752 107.591 49.704C107.863 49.608 108.079 49.504 108.239 49.392C108.415 49.28 108.591 49.16 108.767 49.032L108.863 48.984H108.839C109.031 48.888 109.199 48.792 109.343 48.696C109.503 48.6 109.583 48.552 109.583 48.552C109.647 48.552 109.711 48.512 109.775 48.432C109.903 48.368 110.063 48.392 110.255 48.504C110.463 48.616 110.567 48.76 110.567 48.936C110.551 49.016 110.479 49.144 110.351 49.32C110.223 49.48 110.079 49.632 109.919 49.776C109.775 49.92 109.655 50 109.559 50.016C109.543 50.032 109.487 50.064 109.391 50.112C109.295 50.144 109.231 50.176 109.199 50.208H109.223C109.079 50.4 108.935 50.496 108.791 50.496H108.599C108.535 50.608 108.327 50.736 107.975 50.88C107.623 51.008 107.279 51.072 106.943 51.072ZM108.023 45.792C108.311 45.792 108.559 45.712 108.767 45.552C108.991 45.376 109.183 45.184 109.343 44.976C109.663 44.544 109.847 44.128 109.895 43.728C109.959 43.312 109.911 43.024 109.751 42.864C109.655 42.816 109.567 42.792 109.487 42.792C109.423 42.776 109.287 42.8 109.079 42.864C108.935 42.896 108.735 43.016 108.479 43.224C108.223 43.432 107.967 43.664 107.711 43.92C107.471 44.176 107.287 44.392 107.159 44.568L106.847 45.072C106.975 45.024 107.095 45 107.207 45C107.335 44.984 107.407 44.992 107.423 45.024C107.423 45.168 107.447 45.304 107.495 45.432C107.559 45.544 107.631 45.632 107.711 45.696C107.807 45.76 107.911 45.792 108.023 45.792ZM121.18 49.896C120.86 49.896 120.596 49.832 120.388 49.704C120.18 49.56 120.004 49.328 119.86 49.008C119.796 48.784 119.74 48.536 119.692 48.264C119.66 47.976 119.644 47.712 119.644 47.472C119.644 47.216 119.668 47.048 119.716 46.968C119.78 46.904 119.804 46.792 119.788 46.632C119.788 46.456 119.788 46.272 119.788 46.08C119.772 45.76 119.692 45.584 119.548 45.552C119.42 45.504 119.228 45.552 118.972 45.696C118.684 45.872 118.308 46.112 117.844 46.416C117.38 46.704 116.892 47.024 116.38 47.376C115.884 47.728 115.412 48.096 114.964 48.48C114.612 48.864 114.396 49.16 114.316 49.368C114.252 49.56 114.156 49.656 114.028 49.656C113.9 49.72 113.788 49.728 113.692 49.68C113.612 49.616 113.492 49.52 113.332 49.392C113.22 49.264 113.108 49.144 112.996 49.032C112.884 48.904 112.812 48.808 112.78 48.744C112.78 48.664 112.804 48.496 112.852 48.24C112.9 47.984 112.956 47.728 113.02 47.472C113.1 47.216 113.156 47.048 113.188 46.968C113.268 46.968 113.332 46.888 113.38 46.728C113.444 46.568 113.54 46.392 113.668 46.2C113.7 46.008 113.78 45.752 113.908 45.432C114.052 45.096 114.18 44.8 114.292 44.544C114.516 44.16 114.668 43.84 114.748 43.584C114.844 43.328 114.908 43.008 114.94 42.624C114.924 42.56 114.94 42.504 114.988 42.456C115.036 42.392 115.092 42.36 115.156 42.36C115.284 42.232 115.436 42.2 115.612 42.264C115.788 42.312 115.948 42.432 116.092 42.624C116.38 43.008 116.492 43.408 116.428 43.824C116.38 44.224 116.124 44.8 115.66 45.552C115.548 45.808 115.46 46.008 115.396 46.152C115.348 46.28 115.324 46.384 115.324 46.464C115.324 46.464 115.404 46.408 115.564 46.296C115.74 46.184 115.932 46.056 116.14 45.912C116.364 45.752 116.54 45.632 116.668 45.552C116.748 45.472 116.932 45.328 117.22 45.12C117.508 44.912 117.812 44.712 118.132 44.52C118.468 44.312 118.716 44.192 118.876 44.16C119.004 44.096 119.14 44.04 119.284 43.992C119.428 43.928 119.532 43.896 119.596 43.896C119.724 43.896 119.884 43.968 120.076 44.112C120.284 44.24 120.476 44.4 120.652 44.592C120.828 44.768 120.932 44.92 120.964 45.048C120.964 45.112 120.964 45.176 120.964 45.24C120.98 45.304 120.996 45.368 121.012 45.432C121.076 45.64 121.108 45.92 121.108 46.272C121.124 46.624 121.116 46.944 121.084 47.232C121.052 47.52 120.996 47.688 120.916 47.736C120.916 47.736 120.916 47.76 120.916 47.808C120.932 47.84 120.972 47.856 121.036 47.856C121.036 47.92 121.036 47.96 121.036 47.976C120.956 47.976 120.924 48.048 120.94 48.192C120.956 48.32 121.004 48.464 121.084 48.624C121.18 48.784 121.276 48.912 121.372 49.008C121.564 49.2 121.644 49.384 121.612 49.56C121.58 49.72 121.436 49.832 121.18 49.896ZM125.792 55.512C125.616 55.528 125.344 55.488 124.976 55.392C124.624 55.296 124.36 55.208 124.184 55.128C123.976 54.968 123.768 54.752 123.56 54.48C123.352 54.208 123.184 53.928 123.056 53.64C122.944 53.368 122.896 53.16 122.912 53.016C122.928 52.888 123.048 52.864 123.272 52.944C123.512 53.024 123.672 53.128 123.752 53.256C123.896 53.432 124.064 53.6 124.256 53.76C124.448 53.92 124.64 54.04 124.832 54.12C125.024 54.216 125.176 54.256 125.288 54.24C125.688 54.176 126.016 53.976 126.272 53.64C126.544 53.32 126.784 52.912 126.992 52.416C127.12 52.064 127.216 51.768 127.28 51.528C127.36 51.304 127.432 51.048 127.496 50.76C127.576 50.472 127.672 50.072 127.784 49.56C127.928 48.984 128.024 48.576 128.072 48.336C128.136 48.08 128.168 47.912 128.168 47.832C128.168 47.752 128.144 47.696 128.096 47.664C128.096 47.664 127.992 47.72 127.784 47.832C127.576 47.944 127.344 48.064 127.088 48.192C126.848 48.32 126.664 48.424 126.536 48.504C126.088 48.648 125.648 48.736 125.216 48.768C124.784 48.8 124.448 48.776 124.208 48.696C124.096 48.648 123.976 48.536 123.848 48.36C123.736 48.184 123.64 47.992 123.56 47.784C123.496 47.56 123.472 47.368 123.488 47.208C123.504 47.08 123.576 46.888 123.704 46.632C123.832 46.376 123.976 46.104 124.136 45.816C124.312 45.528 124.464 45.288 124.592 45.096C124.736 44.888 124.824 44.784 124.856 44.784C124.92 44.784 124.952 44.76 124.952 44.712C124.968 44.664 124.976 44.608 124.976 44.544C124.992 44.48 125.112 44.344 125.336 44.136C125.576 43.912 125.896 43.64 126.296 43.32C126.856 42.808 127.36 42.416 127.808 42.144C128.256 41.872 128.672 41.72 129.056 41.688C129.168 41.704 129.272 41.712 129.368 41.712C129.48 41.712 129.536 41.712 129.536 41.712C129.536 41.712 129.584 41.744 129.68 41.808C129.792 41.856 129.936 41.92 130.112 42C130.352 42.096 130.568 42.264 130.76 42.504C130.952 42.728 131.104 42.992 131.216 43.296C131.344 43.584 131.416 43.872 131.432 44.16C131.416 44.512 131.336 44.856 131.192 45.192C131.064 45.528 130.936 45.688 130.808 45.672C130.68 45.656 130.52 45.712 130.328 45.84C130.152 45.968 130.064 46.064 130.064 46.128C130.064 46.192 130.04 46.272 129.992 46.368C129.96 46.464 129.856 46.616 129.68 46.824C129.664 46.904 129.616 47.12 129.536 47.472C129.472 47.808 129.392 48.192 129.296 48.624C129.2 49.056 129.112 49.448 129.032 49.8C128.968 50.136 128.928 50.352 128.912 50.448C128.896 50.512 128.856 50.656 128.792 50.88C128.744 51.088 128.672 51.328 128.576 51.6C128.496 51.872 128.408 52.128 128.312 52.368C128.248 52.832 128.16 53.176 128.048 53.4C127.952 53.64 127.792 53.896 127.568 54.168C127.328 54.568 127.04 54.88 126.704 55.104C126.368 55.344 126.064 55.48 125.792 55.512ZM124.808 47.448C124.84 47.608 125.056 47.664 125.456 47.616C125.856 47.552 126.256 47.416 126.656 47.208C127.008 47.032 127.328 46.888 127.616 46.776C127.904 46.664 128.104 46.504 128.216 46.296C128.312 46.136 128.392 45.976 128.456 45.816C128.52 45.656 128.6 45.424 128.696 45.12C128.712 45.056 128.752 44.984 128.816 44.904C128.896 44.808 128.968 44.752 129.032 44.736C129.096 44.72 129.16 44.72 129.224 44.736C129.304 44.752 129.4 44.784 129.512 44.832C129.592 44.8 129.648 44.72 129.68 44.592C129.728 44.464 129.736 44.32 129.704 44.16C129.688 44.048 129.608 43.896 129.464 43.704C129.32 43.512 129.136 43.36 128.912 43.248C128.672 43.12 128.392 43.2 128.072 43.488C127.752 43.776 127.36 44.128 126.896 44.544C126.528 44.88 126.176 45.232 125.84 45.6C125.504 45.968 125.232 46.312 125.024 46.632C124.832 46.952 124.76 47.224 124.808 47.448ZM134.18 50.424C133.556 50.168 133.148 49.816 132.956 49.368C132.78 48.904 132.748 48.192 132.86 47.232C132.892 46.736 132.908 46.408 132.908 46.248C132.908 46.088 132.82 45.928 132.644 45.768C132.596 45.704 132.508 45.616 132.38 45.504C132.268 45.392 132.22 45.296 132.236 45.216C132.22 45.104 132.228 44.984 132.26 44.856C132.292 44.712 132.34 44.64 132.404 44.64C132.468 44.64 132.532 44.624 132.596 44.592C132.676 44.56 132.748 44.56 132.812 44.592C132.876 44.592 132.948 44.6 133.028 44.616C133.108 44.632 133.148 44.672 133.148 44.736C133.212 44.848 133.316 44.864 133.46 44.784C133.604 44.688 133.756 44.48 133.916 44.16C134.076 43.904 134.284 43.648 134.54 43.392C134.812 43.136 135.076 42.904 135.332 42.696C135.604 42.472 135.828 42.312 136.004 42.216C136.084 42.184 136.204 42.144 136.364 42.096C136.524 42.048 136.692 42.008 136.868 41.976C137.06 41.944 137.22 41.936 137.348 41.952C137.636 41.968 137.876 42.048 138.068 42.192C138.276 42.336 138.468 42.504 138.644 42.696C138.852 42.84 138.98 43.032 139.028 43.272C139.092 43.512 139.108 43.768 139.076 44.04C139.044 44.312 138.972 44.56 138.86 44.784C138.812 44.944 138.676 45.136 138.452 45.36C138.228 45.584 137.972 45.8 137.684 46.008C137.396 46.216 137.132 46.368 136.892 46.464C136.684 46.512 136.412 46.552 136.076 46.584C135.756 46.616 135.452 46.632 135.164 46.632C134.892 46.616 134.708 46.584 134.612 46.536C134.5 46.472 134.412 46.56 134.348 46.8C134.284 47.04 134.236 47.384 134.204 47.832C134.172 48.184 134.172 48.44 134.204 48.6C134.236 48.76 134.268 48.872 134.3 48.936C134.412 49.048 134.564 49.192 134.756 49.368C134.964 49.528 135.252 49.552 135.62 49.44C135.924 49.36 136.22 49.152 136.508 48.816C136.812 48.48 137.092 48.208 137.348 48C137.412 47.888 137.516 47.824 137.66 47.808C137.82 47.776 137.988 47.784 138.164 47.832C138.34 47.944 138.412 48.08 138.38 48.24C138.364 48.384 138.284 48.608 138.14 48.912C138.092 49.024 137.98 49.168 137.804 49.344C137.644 49.504 137.46 49.672 137.252 49.848C137.06 50.008 136.884 50.136 136.724 50.232C136.244 50.488 135.796 50.624 135.38 50.64C134.964 50.64 134.564 50.568 134.18 50.424ZM135.596 45.552C135.948 45.472 136.228 45.416 136.436 45.384C136.644 45.352 136.844 45.264 137.036 45.12C137.228 44.96 137.468 44.664 137.756 44.232C137.82 44.056 137.836 43.88 137.804 43.704C137.788 43.528 137.748 43.408 137.684 43.344C137.54 43.184 137.364 43.136 137.156 43.2C136.964 43.248 136.78 43.336 136.604 43.464C136.492 43.512 136.324 43.632 136.1 43.824C135.892 44 135.684 44.208 135.476 44.448C135.268 44.672 135.1 44.88 134.972 45.072C134.844 45.264 134.812 45.376 134.876 45.408C134.844 45.472 134.932 45.512 135.14 45.528C135.364 45.544 135.516 45.552 135.596 45.552Z" fill="white"/>
<defs>
<clipPath id="clip0_18_35">
<rect width="60" height="60" fill="white"/>
</clipPath>
</defs>
</svg>
